# wavefront obj file written by the visualization toolkit

mtllib C:/Users/hiteshganjoo/Downloads/Spl_pnl_brain_atlas_2007b/spl_pnl_brain_atlas_2007/03-models/cerebral_aqueduct.mtl

v 0.708754 -41.5658 -21.9269
v 0.717452 -41.1008 -22.2268
v 1.07382 -41.2013 -22.1088
v 0.330563 -41.0352 -22.107
v 1.16066 -41.746 -21.3975
v 1.35939 -41.2032 -21.771
v 1.59697 -41.2918 -21.208
v 0.677519 -41.749 -21.3525
v 0.143466 -40.9245 -21.0304
v 1.29734 -41.6719 -19.991
v 1.80307 -41.2406 -20.5349
v 0.67234 -41.7352 -19.7949
v 0.34461 -41.0491 -20.1273
v 2.01321 -41.6937 -19.2507
v 2.03059 -41.2396 -20.107
v 2.3677 -41.2725 -18.9559
v 1.07823 -42.0245 -18.8058
v 0.786338 -41.7647 -19.0354
v 0.46855 -41.0198 -19.2291
v 2.15502 -41.6927 -18.5143
v 2.5782 -41.1225 -18.3325
v 1.14189 -42.0058 -18.3074
v 0.852063 -41.8117 -18.4753
v 0.528781 -41.0228 -18.5821
v 2.18571 -41.8344 -17.9865
v 2.66346 -41.0056 -17.6749
v 1.13166 -42.0251 -17.9035
v 0.734861 -41.7025 -17.8801
v 0.519969 -41.1233 -18.0269
v 2.42685 -41.2296 -17.1375
v 3.21599 -40.905 -16.7718
v 1.62201 -41.3397 -17.1653
v 0.763535 -40.7153 -17.0373
v 0.638194 -41.0551 -17.7696
v 2.50522 -41.0188 -16.1833
v 1.63515 -40.7399 -16.166
v 1.23813 -40.9064 -22.0765
v 1.0346 -40.4372 -22.1181
v 1.25326 -40.6992 -21.5798
v -0.0951934 -40.4264 -21.3759
v 1.32914 -40.5266 -20.9646
v 0.0870323 -40.4798 -20.5749
v 1.37402 -40.3676 -20.3982
v 0.30216 -40.5246 -19.996
v 0.406179 -40.2908 -19.6489
v 0.21668 -40.2213 -20.1115
v 2.14458 -40.7482 -19.1777
v 1.65437 -40.4904 -19.741
v 0.416393 -40.6258 -19.4799
v 0.466354 -40.2829 -19.0556
v 1.94456 -40.2638 -18.8694
v 2.72787 -40.5467 -18.2646
v 0.487583 -40.6384 -18.8173
v 0.508647 -40.2815 -18.398
v 2.91721 -40.4138 -17.6612
v 0.522587 -40.6586 -18.1931
v 0.489957 -40.2589 -17.7961
v 2.90724 -40.2617 -16.4728
v 0.383162 -40.3388 -17.3916
v 0.411236 -40.4163 -16.8336
v 0.106559 -40.3813 -17.0439
v 2.57981 -40.5371 -16.0095
v 1.56384 -40.4424 -15.2915
v 2.13578 -40.2839 -15.2554
v 0.79354 -40.4023 -15.4122
v 0.338159 -40.3112 -15.9122
v 1.27765 -40.4188 -14.391
v 1.95497 -40.1676 -14.5914
v 0.968513 -40.3097 -14.6289
v 1.26038 -40.4045 -14.0949
v 2.02261 -40.0727 -14.0807
v 0.978084 -40.2275 -14.1092
v 1.41972 -40.1148 -14.0804
v 0.871918 -39.778 -21.2911
v 0.335033 -39.7443 -21.3679
v 0.9793 -39.8045 -20.7189
v 0.421436 -39.8029 -20.8164
v 1.02387 -39.8556 -19.9874
v 1.19544 -39.8581 -19.1159
v 1.98319 -39.8333 -18.0733
v 1.25711 -39.8134 -18.2825
v 2.0419 -39.8175 -17.2318
v 1.33839 -39.814 -17.4337
v 2.09352 -39.8549 -16.3997
v 1.44847 -39.7941 -16.5853
v 0.709205 -39.8683 -16.6981
v 1.43167 -39.8672 -15.652
v 1.43372 -39.8351 -14.7283
v 1.4262 -39.739 -14.1427
v 2.02442 -34.6096 -10.3552
v 2.1243 -33.8113 -10.7668
v 2.73448 -34.2464 -10.4972
v 1.43783 -34.39 -10.4548
v 1.36733 -33.4957 -10.7692
v 0.877576 -34.4149 -10.48
v 0.738108 -33.4595 -10.8177
v 0.184565 -33.2699 -10.6591
v 1.96415 -33.645 -10.297
v 1.48093 -33.1722 -10.4238
v 0.999584 -33.1944 -10.3843
v 2.06346 -33.0424 -10.7507
v 2.18902 -33.2452 -10.5918
v 1.38466 -32.7432 -10.5847
v 1.6009 -32.7502 -10.5376
v 1.21247 -32.4435 -10.6252
v 0.679107 -32.4424 -10.828
v 0.236342 -32.3913 -10.6427
v 1.93793 -32.9483 -10.411
v 1.05901 -32.4491 -10.482
v 2.08029 -32.2112 -10.3918
v 1.2147 -32.0812 -10.6141
v 0.904241 -31.2733 -10.8018
v 1.49631 -31.3543 -10.4847
v 0.426078 -31.3017 -10.858
v 0.263872 -31.4712 -10.6337
v 1.24017 -31.6712 -10.442
v 0.488834 -31.1275 -10.5268
v 0.90477 -31.2604 -10.6231
v 0.323246 -30.8961 -10.6962
v 1.80307 -41.2406 -20.5349
v 0.67234 -41.7352 -19.7949
v -0.0951934 -40.4264 -21.3759
v 0.489957 -40.2589 -17.7961
v 0.383162 -40.3388 -17.3916
v 0.106559 -40.3813 -17.0439
v 2.13578 -40.2839 -15.2554
v 0.79354 -40.4023 -15.4122
v 0.338159 -40.3112 -15.9122
v 1.95497 -40.1676 -14.5914
v 0.968513 -40.3097 -14.6289
v 1.26038 -40.4045 -14.0949
v 2.02261 -40.0727 -14.0807
v 2.02261 -40.0727 -14.0807
v 0.978084 -40.2275 -14.1092
v 0.978084 -40.2275 -14.1092
v 0.335033 -39.7443 -21.3679
v 1.43372 -39.8351 -14.7283
v 1.4262 -39.739 -14.1427
v 1.4262 -39.739 -14.1427
v 2.02442 -34.6096 -10.3552
v 2.73448 -34.2464 -10.4972
v 1.43783 -34.39 -10.4548
v 0.877576 -34.4149 -10.48
v 0.184565 -33.2699 -10.6591
v 2.18902 -33.2452 -10.5918
v 1.38466 -32.7432 -10.5847
v 1.6009 -32.7502 -10.5376
v 1.21247 -32.4435 -10.6252
v 0.236342 -32.3913 -10.6427
v 2.08029 -32.2112 -10.3918
v 2.08029 -32.2112 -10.3918
v 1.2147 -32.0812 -10.6141
v 1.2147 -32.0812 -10.6141
v 0.904241 -31.2733 -10.8018
v 1.49631 -31.3543 -10.4847
v 1.49631 -31.3543 -10.4847
v 0.263872 -31.4712 -10.6337
v 0.323246 -30.8961 -10.6962
v 0.323246 -30.8961 -10.6962
v 0.323246 -30.8961 -10.6962
vn -0.300529 -0.766242 -0.56794
vn 0.0248656 -0.177717 -0.983767
vn 0.462416 -0.47464 -0.748924
vn -0.703393 -0.205272 -0.680515
vn 0.410617 -0.866081 -0.285125
vn 0.873487 -0.200267 -0.443749
vn 0.941558 -0.190081 -0.278095
vn -0.600319 -0.794619 -0.0905441
vn -0.885427 -0.464548 0.0146213
vn 0.24899 -0.953449 -0.170115
vn 0.53346 -0.798683 -0.278433
vn 0.0685624 -0.997647 -0.000409932
vn -0.943934 -0.290602 0.15665
vn 0.522511 -0.825358 -0.213929
vn 0.919531 0.050052 -0.389818
vn 0.919893 -0.261256 -0.292476
vn -0.267469 -0.958077 -0.102707
vn -0.72317 -0.690511 -0.0147945
vn -0.970132 -0.213344 0.115447
vn 0.564926 -0.811214 -0.150967
vn 0.897223 -0.417411 -0.144081
vn -0.16803 -0.985781 -0.00149556
vn -0.797317 -0.60352 0.00698274
vn -0.976529 -0.2125 0.0351441
vn 0.574559 -0.802791 0.1594
vn 0.851218 -0.505645 -0.140542
vn -0.0950743 -0.965969 0.240551
vn -0.755144 -0.565619 0.331411
vn -0.975969 -0.173963 0.131226
vn 0.38936 -0.899291 0.199185
vn 0.877152 -0.444477 0.18178
vn -0.158974 -0.80231 0.575349
vn -0.694088 -0.688294 0.210934
vn -0.94184 -0.0813961 0.326055
vn 0.166402 -0.792726 0.586427
vn -0.177595 -0.85284 0.491044
vn 0.7406 0.062333 -0.669049
vn 0.187979 0.5255 -0.829768
vn 0.90727 0.364527 -0.209718
vn -0.491485 0.434991 -0.75447
vn 0.872963 0.438082 -0.214521
vn -0.974597 0.00694598 0.223859
vn 0.830397 0.528482 -0.176487
vn -0.95194 -0.0918032 0.292201
vn -0.842496 0.491176 0.22124
vn -0.842658 0.43374 0.319057
vn 0.79021 0.431644 -0.435031
vn 0.730067 0.608745 -0.310535
vn -0.989091 -0.0190572 0.146071
vn -0.866109 0.495735 0.0640473
vn 0.603905 0.672821 -0.427329
vn 0.894428 0.213834 -0.392777
vn -0.99626 -0.0332105 0.0797653
vn -0.873972 0.485343 0.0247893
vn 0.867628 0.431786 -0.24654
vn -0.99158 -0.0469513 0.120686
vn -0.909796 -0.411842 -0.0515529
vn 0.694685 0.671476 0.257939
vn -0.423463 -0.88867 -0.175912
vn -0.395912 -0.918099 -0.0186613
vn -0.100803 -0.994708 -0.0198663
vn 0.57256 -0.223952 0.788683
vn 0.0284339 -0.976439 0.213914
vn 0.296762 -0.91659 0.267947
vn -0.193692 -0.959147 0.206203
vn -0.407442 -0.906809 0.10811
vn -0.0402403 -0.994518 0.096509
vn 0.388737 -0.909147 0.14945
vn -0.267082 -0.960895 0.0731314
vn 0.0840022 -0.993897 0.0715032
vn 0.394549 -0.911377 0.117142
vn -0.482238 -0.872407 0.0797047
vn -0.0436749 0.0651696 0.996918
vn 0.554978 0.808884 -0.194181
vn -0.132468 0.845915 -0.516604
vn 0.582944 0.810672 -0.054651
vn -0.483287 0.860336 0.162033
vn 0.159923 0.982857 0.0917437
vn 0.0525736 0.987598 -0.147938
vn 0.355702 0.912994 -0.199794
vn -0.313383 0.949621 0.00347576
vn 0.279437 0.959817 -0.0258195
vn -0.205968 0.977565 -0.0440884
vn 0.366577 0.900211 0.235034
vn -0.00881591 0.999452 0.0319093
vn -0.444765 0.895225 -0.0275155
vn -0.0185547 0.984751 0.172976
vn 0.536374 0.833964 -0.129645
vn 0.494424 0.858746 -0.134539
vn -0.027041 -0.411741 -0.9109
vn 0.281859 -0.136516 -0.949694
vn 0.31232 -0.143908 -0.939014
vn 0.0493368 -0.327182 -0.943673
vn 0.099462 -0.0618889 -0.993115
vn -0.159544 -0.349639 -0.9232
vn -0.0960333 -0.215331 -0.971808
vn -0.35059 -0.116507 -0.929254
vn 0.00397294 0.0392372 0.999222
vn -0.00529671 0.152807 0.988242
vn -0.13363 0.0280812 0.990633
vn 0.311152 0.325272 -0.892963
vn 0.757492 0.156675 -0.633765
vn 0.203513 0.422552 -0.883194
vn -0.000773515 0.588449 -0.808534
vn 0.413751 0.132512 -0.900695
vn 0.032026 0.00565671 -0.999471
vn -0.552956 -0.0144268 -0.833085
vn 0.20222 0.196035 0.959519
vn 0.159713 0.110196 0.980994
vn 0.870531 0.180094 -0.457976
vn 0.410147 -0.0185831 -0.91183
vn 0.277437 0.0789106 -0.957498
vn 0.469363 -0.0247421 -0.882659
vn -0.417873 0.0748466 -0.905417
vn -0.819246 0.0260674 -0.57285
vn 0.495794 0.0676168 0.865804
vn -0.0711737 0.313609 0.946881
vn 0.297902 0.809535 0.505873
vn 0.0847289 0.387716 -0.917877
vn 0.832853 0.470651 -0.29128
vn -0.917068 -0.388835 0.0882758
vn -0.987879 0.0620418 0.14229
vn -0.540008 0.832128 -0.126312
vn -0.648411 0.73604 -0.194445
vn -0.607126 0.787041 -0.10938
vn 0.545423 0.818729 0.179435
vn -0.614721 0.763658 0.197344
vn -0.518999 0.79718 0.308454
vn 0.543493 0.834765 -0.0882176
vn -0.723741 0.68849 -0.0467013
vn -0.0283656 -0.0346977 0.998995
vn -0.00340539 0.0559824 0.998426
vn 0.530935 0.828313 -0.178903
vn -0.083809 0.0742317 0.993713
vn -0.736897 0.66967 -0.0923302
vn -0.83205 0.52261 0.185934
vn -0.694165 0.719409 -0.0241896
vn -0.729279 0.675839 -0.10674
vn -0.0585448 0.164415 0.984652
vn 0.012926 -0.0594441 0.998148
vn 0.515875 0.219231 0.828137
vn -0.168898 -0.0368446 0.984945
vn -0.0926804 -0.0517646 0.994349
vn -0.317711 -0.020831 0.947959
vn 0.715807 0.197472 0.669794
vn 0.360313 0.413356 0.836248
vn -0.235355 0.218229 0.947092
vn 0.874097 0.0932997 0.476707
vn -0.231617 0.0466219 0.971689
vn -0.167784 0.393592 -0.903844
vn 0.0853378 -0.0423196 0.995453
vn 0.558666 -0.350223 0.751822
vn 0.989822 -0.00177368 -0.142297
vn 0.360951 0.930085 -0.0682375
vn 0.218499 -0.0452727 0.974786
vn 0.172728 0.982374 -0.0714564
vn -0.373108 0.0155675 0.927657
vn 0.481407 0.826923 0.290596
vn -0.817908 0.0220386 -0.574927
vn -0.599239 0.147274 0.786907

g grp1
usemtl mtl1
f 3//3 1//1 2//2
f 2//2 1//1 4//4
f 2//2 4//4 38//38
f 38//38 4//4 40//40
f 38//38 40//40 75//75
f 7//7 5//5 6//6
f 6//6 5//5 3//3
f 6//6 3//3 37//37
f 37//37 3//3 2//2
f 37//37 2//2 38//38
f 3//3 5//5 1//1
f 1//1 5//5 8//8
f 1//1 8//8 9//9
f 9//9 8//8 13//13
f 9//9 13//13 42//42
f 42//42 13//13 44//44
f 42//42 44//44 46//46
f 46//46 44//44 45//45
f 46//46 45//45 78//78
f 78//78 45//45 79//79
f 78//78 79//79 48//48
f 48//48 79//79 51//51
f 48//48 51//51 47//47
f 47//47 51//51 52//52
f 47//47 52//52 16//16
f 16//16 52//52 21//21
f 16//16 21//21 20//20
f 20//20 21//21 25//25
f 20//20 25//25 27//27
f 27//27 25//25 32//32
f 27//27 32//32 28//28
f 28//28 32//32 33//33
f 28//28 33//33 34//34
f 34//34 33//33 56//56
f 34//34 56//56 29//29
f 29//29 56//56 24//24
f 29//29 24//24 23//23
f 23//23 24//24 18//18
f 23//23 18//18 17//17
f 17//17 18//18 10//10
f 17//17 10//10 14//14
f 14//14 10//10 11//11
f 14//14 11//11 15//15
f 1//1 9//9 4//4
f 4//4 9//9 122//122
f 7//7 10//10 5//5
f 5//5 10//10 12//12
f 5//5 12//12 8//8
f 11//11 10//10 7//7
f 8//8 121//121 13//13
f 13//13 121//121 19//19
f 13//13 19//19 49//49
f 49//49 19//19 53//53
f 49//49 53//53 50//50
f 50//50 53//53 54//54
f 50//50 54//54 81//81
f 81//81 54//54 83//83
f 81//81 83//83 80//80
f 80//80 83//83 82//82
f 80//80 82//82 55//55
f 55//55 82//82 58//58
f 55//55 58//58 31//31
f 31//31 58//58 62//62
f 31//31 62//62 35//35
f 35//35 62//62 36//36
f 35//35 36//36 32//32
f 32//32 36//36 33//33
f 14//14 15//15 16//16
f 16//16 15//15 47//47
f 12//12 10//10 18//18
f 121//121 18//18 19//19
f 19//19 18//18 24//24
f 19//19 24//24 53//53
f 53//53 24//24 56//56
f 53//53 56//56 54//54
f 54//54 56//56 57//57
f 16//16 20//20 14//14
f 14//14 20//20 22//22
f 14//14 22//22 17//17
f 17//17 22//22 23//23
f 21//21 26//26 25//25
f 25//25 26//26 30//30
f 25//25 30//30 32//32
f 32//32 30//30 35//35
f 20//20 27//27 22//22
f 22//22 27//27 28//28
f 22//22 28//28 23//23
f 23//23 28//28 29//29
f 26//26 31//31 30//30
f 30//30 31//31 35//35
f 29//29 28//28 34//34
f 37//37 38//38 39//39
f 39//39 38//38 74//74
f 39//39 74//74 41//41
f 41//41 74//74 76//76
f 41//41 76//76 43//43
f 43//43 76//76 78//78
f 43//43 78//78 48//48
f 37//37 39//39 6//6
f 6//6 39//39 7//7
f 39//39 41//41 7//7
f 7//7 41//41 120//120
f 9//9 42//42 122//122
f 122//122 42//42 77//77
f 122//122 77//77 136//136
f 41//41 43//43 120//120
f 120//120 43//43 48//48
f 120//120 48//48 15//15
f 15//15 48//48 47//47
f 44//44 49//49 45//45
f 45//45 49//49 50//50
f 45//45 50//50 79//79
f 79//79 50//50 81//81
f 79//79 81//81 80//80
f 44//44 13//13 49//49
f 21//21 52//52 26//26
f 26//26 52//52 55//55
f 26//26 55//55 31//31
f 60//60 59//59 33//33
f 33//33 59//59 57//57
f 33//33 57//57 56//56
f 59//59 60//60 61//61
f 61//61 60//60 66//66
f 64//64 63//63 62//62
f 62//62 63//63 36//36
f 36//36 63//63 65//65
f 65//65 63//63 69//69
f 36//36 65//65 33//33
f 33//33 65//65 66//66
f 33//33 66//66 60//60
f 64//64 67//67 63//63
f 63//63 67//67 69//69
f 64//64 68//68 67//67
f 67//67 68//68 70//70
f 67//67 70//70 72//72
f 71//71 70//70 68//68
f 72//72 69//69 67//67
f 131//131 132//132 73//73
f 73//73 132//132 139//139
f 73//73 139//139 134//134
f 134//134 131//131 73//73
f 38//38 75//75 74//74
f 74//74 75//75 77//77
f 74//74 77//77 76//76
f 76//76 77//77 78//78
f 78//78 77//77 46//46
f 46//46 77//77 42//42
f 52//52 51//51 80//80
f 80//80 51//51 79//79
f 52//52 80//80 55//55
f 54//54 123//123 83//83
f 83//83 123//123 86//86
f 83//83 86//86 85//85
f 85//85 86//86 87//87
f 85//85 87//87 84//84
f 84//84 87//87 126//126
f 84//84 126//126 62//62
f 58//58 82//82 84//84
f 84//84 82//82 85//85
f 83//83 85//85 82//82
f 123//123 124//124 86//86
f 86//86 124//124 125//125
f 86//86 125//125 128//128
f 58//58 84//84 62//62
f 128//128 127//127 87//87
f 87//87 127//127 137//137
f 128//128 87//87 86//86
f 87//87 88//88 129//129
f 129//129 88//88 133//133
f 126//126 87//87 129//129
f 127//127 130//130 137//137
f 137//137 130//130 138//138
f 88//88 89//89 133//133
f 130//130 135//135 138//138
f 92//92 90//90 91//91
f 91//91 90//90 94//94
f 91//91 94//94 101//101
f 101//101 94//94 103//103
f 101//101 103//103 104//104
f 90//90 93//93 94//94
f 94//94 93//93 96//96
f 94//94 96//96 106//106
f 106//106 96//96 97//97
f 106//106 97//97 107//107
f 93//93 95//95 96//96
f 96//96 95//95 97//97
f 140//140 141//141 98//98
f 98//98 141//141 108//108
f 98//98 108//108 99//99
f 99//99 108//108 147//147
f 99//99 147//147 146//146
f 140//140 98//98 142//142
f 142//142 98//98 99//99
f 142//142 99//99 143//143
f 143//143 99//99 100//100
f 143//143 100//100 144//144
f 144//144 100//100 149//149
f 91//91 101//101 102//102
f 102//102 101//101 110//110
f 92//92 91//91 102//102
f 103//103 94//94 105//105
f 105//105 94//94 106//106
f 105//105 106//106 111//111
f 111//111 106//106 112//112
f 111//111 112//112 113//113
f 141//141 145//145 108//108
f 108//108 145//145 151//151
f 108//108 151//151 147//147
f 146//146 148//148 109//109
f 109//109 148//148 116//116
f 109//109 116//116 117//117
f 117//117 116//116 118//118
f 117//117 118//118 158//158
f 158//158 118//118 154//154
f 146//146 109//109 99//99
f 99//99 109//109 100//100
f 100//100 109//109 149//149
f 149//149 109//109 157//157
f 104//104 150//150 101//101
f 112//112 106//106 114//114
f 114//114 106//106 107//107
f 114//114 107//107 115//115
f 152//152 155//155 116//116
f 116//116 155//155 118//118
f 148//148 153//153 116//116
f 109//109 117//117 157//157
f 157//157 117//117 160//160
f 154//154 118//118 156//156
f 112//112 114//114 119//119
f 114//114 115//115 159//159
