# wavefront obj file written by the visualization toolkit

mtllib C:/Users/hiteshganjoo/Downloads/Spl_pnl_brain_atlas_2007b/spl_pnl_brain_atlas_2007/03-models/mamillary_body_L.mtl

v 0.400758 -17.6393 -15.7649
v 0.505221 -17.051 -16.0181
v 0.802517 -17.0802 -15.8492
v -0.111415 -18.0036 -15.6485
v 0.0916815 -17.4537 -15.9756
v -0.590672 -17.9867 -15.6039
v -0.276639 -17.669 -15.8845
v -0.589757 -17.4338 -15.8274
v 0.785551 -17.4693 -15.5854
v 1.03731 -17.5273 -15.2703
v 0.271661 -18.3893 -15.1494
v -0.61429 -18.506 -15.1571
v -0.90178 -17.7217 -15.5625
v -1.07191 -18.2647 -15.1908
v -1.25652 -17.6745 -15.2961
v 1.00165 -19.0461 -14.5004
v 1.44156 -17.379 -14.9773
v 1.91896 -18.0054 -14.5184
v 0.4684 -19.3241 -14.4464
v -0.868721 -19.1703 -14.5222
v -1.34683 -18.9649 -14.5868
v -1.71563 -18.5496 -14.6895
v 0.863457 -18.0135 -14.1145
v 0.00191689 -18.044 -14.0837
v -0.792561 -18.1037 -14.0655
v -1.42938 -18.0483 -14.0907
v 0.583298 -16.4266 -16.0753
v 0.905349 -16.5285 -15.9376
v 0.194385 -16.8173 -16.0944
v -0.21208 -17.1472 -16.0193
v -0.572577 -16.7256 -15.8828
v 1.37479 -16.4359 -15.6376
v 1.31213 -16.1795 -15.5398
v -0.991201 -17.0492 -15.6111
v -1.5709 -16.6912 -15.204
v 1.4778 -16.032 -15.297
v 1.8954 -17.2837 -14.5772
v -1.99784 -17.2419 -14.8341
v -2.05934 -18.53 -14.5276
v -2.51191 -17.2745 -14.6443
v 1.2294 -17.0362 -14.0944
v 0.120828 -17.1627 -14.0445
v -0.582404 -17.2643 -14.0749
v -1.22299 -17.3008 -14.1067
v -1.80562 -17.4148 -14.0982
v 0.672033 -15.8144 -16.0023
v 0.880165 -16.0259 -15.9647
v 0.303397 -16.057 -16.032
v -0.143116 -16.4453 -16.015
v -0.465889 -16.1724 -15.8711
v 1.24917 -15.8911 -15.7122
v 1.11136 -15.5688 -15.5137
v -1.01608 -15.9072 -15.5567
v -1.86172 -15.2097 -15.1864
v 1.27067 -15.402 -15.1646
v 1.6941 -16.0505 -14.5017
v -2.04562 -15.2972 -14.9904
v -2.55924 -16.5303 -14.5649
v 1.40781 -16.1974 -14.2492
v 0.0737357 -16.3594 -14.0216
v -0.47307 -16.5309 -14.0468
v -1.08417 -16.5762 -14.0866
v -1.57807 -16.5755 -14.1956
v 0.966961 -15.3209 -15.7982
v 0.609655 -15.1237 -15.8372
v -0.109627 -15.5383 -15.7782
v 0.608139 -15.0621 -15.5993
v 0.0494885 -14.5415 -15.4887
v -0.776896 -14.9974 -15.3812
v -1.66946 -14.9451 -15.1374
v -1.28015 -14.7215 -15.0298
v 1.28784 -14.9551 -14.4075
v 1.06532 -14.5249 -14.557
v 0.340405 -14.6164 -15.162
v -1.63975 -14.9532 -14.9145
v -1.87138 -15.2105 -14.7575
v -1.58679 -15.0801 -14.7021
v 0.314548 -14.8425 -14.3106
v -0.319819 -15.0527 -14.3868
v -0.921192 -15.2279 -14.3913
v -0.535626 -14.5489 -15.0472
v 0.0214791 -14.5611 -14.6884
v -0.613246 -14.7846 -14.6689
v -1.2136 -14.8592 -14.7181
v 1.03731 -17.5273 -15.2703
v 1.00165 -19.0461 -14.5004
v 1.91896 -18.0054 -14.5184
v 0.4684 -19.3241 -14.4464
v -0.868721 -19.1703 -14.5222
v -1.34683 -18.9649 -14.5868
v -1.71563 -18.5496 -14.6895
v 1.8954 -17.2837 -14.5772
v -2.05934 -18.53 -14.5276
v -2.51191 -17.2745 -14.6443
v 1.6941 -16.0505 -14.5017
v -2.55924 -16.5303 -14.5649
v 1.28784 -14.9551 -14.4075
vn 0.392554 -0.526337 -0.754235
vn 0.307618 -0.255377 -0.916599
vn 0.541785 -0.363702 -0.757753
vn 0.0890498 -0.63058 -0.770998
vn 0.102293 -0.363891 -0.925807
vn -0.293786 -0.50369 -0.812395
vn -0.169019 -0.396812 -0.902205
vn -0.443075 -0.190919 -0.875919
vn 0.607138 -0.504185 -0.614151
vn 0.580975 -0.420883 -0.696653
vn 0.276257 -0.625405 -0.729761
vn -0.0988963 -0.666157 -0.739225
vn -0.530073 -0.269895 -0.803853
vn -0.412243 -0.463711 -0.784238
vn -0.602885 -0.207252 -0.770439
vn 0.398824 -0.431598 -0.809112
vn 0.652312 -0.230161 -0.72216
vn 0.532901 -0.196796 -0.822975
vn 0.0936011 -0.585756 -0.805064
vn -0.0339811 -0.657058 -0.753074
vn -0.265336 -0.582405 -0.768376
vn -0.498724 -0.275722 -0.821737
vn 0.183543 -0.185483 0.965354
vn 0.00478049 -0.175385 0.984488
vn -0.0631337 -0.202497 0.977246
vn -0.175736 -0.348473 0.920697
vn 0.18941 0.00242456 -0.981895
vn 0.482209 -0.104713 -0.869776
vn -0.0256358 -0.0461032 -0.998608
vn -0.235209 -0.103715 -0.966395
vn -0.436535 0.0236697 -0.899376
vn 0.872261 -0.180419 -0.454544
vn 0.974558 0.0672762 -0.213799
vn -0.573674 -0.0665104 -0.816379
vn -0.587569 -0.10518 -0.802309
vn 0.851918 0.142722 -0.503851
vn 0.799751 -0.0196318 -0.60001
vn -0.437535 -0.152149 -0.886236
vn -0.37808 -0.197219 -0.904522
vn -0.46179 -0.0864687 -0.882764
vn 0.310977 0.00682222 0.950393
vn 0.0037453 -0.0361033 0.999341
vn -0.0360145 -0.0149716 0.999239
vn -0.0584792 0.0312884 0.997798
vn -0.351688 -0.0319303 0.935573
vn 0.156144 0.1713 -0.972767
vn 0.420358 0.0690272 -0.904729
vn -0.120712 0.177122 -0.976758
vn -0.243015 0.126752 -0.961706
vn -0.34104 0.194468 -0.919714
vn 0.860322 0.210851 -0.464099
vn 0.791729 0.528093 -0.307055
vn -0.397198 0.154091 -0.904704
vn -0.5569 0.186316 -0.809413
vn 0.839891 0.402701 -0.36389
vn 0.924998 0.292761 -0.24222
vn -0.815505 0.362071 -0.451504
vn -0.684912 0.0341241 -0.727826
vn 0.389087 0.118659 0.913527
vn 0.000599216 0.118563 0.992946
vn -0.0689971 0.101275 0.992463
vn -0.124514 0.0879636 0.988311
vn -0.254051 0.212752 0.943501
vn 0.647218 0.519474 -0.557903
vn -0.0185191 0.594358 -0.803988
vn -0.278315 0.368711 -0.886901
vn 0.416973 0.835407 -0.358091
vn 0.00315854 0.741553 -0.670887
vn -0.282411 0.4792 -0.83103
vn -0.487581 0.670681 -0.558974
vn -0.345442 0.92994 -0.126023
vn 0.899684 0.366704 -0.236847
vn 0.481887 0.876232 -0.00138946
vn 0.348451 0.906347 -0.238992
vn -0.522174 0.784614 0.334238
vn -0.542135 0.543234 0.641083
vn -0.367749 0.531617 0.762984
vn -0.0342516 0.404452 0.913918
vn -0.179813 0.434596 0.882493
vn -0.190021 0.395851 0.89844
vn -0.180178 0.98336 0.023215
vn -0.151608 0.885639 0.43893
vn -0.191683 0.713917 0.673484
vn -0.26421 0.751848 0.604084
vn 0.791298 -0.0393199 0.610165
vn 0.299323 -0.298635 0.906213
vn 0.443823 -0.120951 0.887914
vn 0.07037 -0.292216 0.95376
vn -0.10559 -0.356572 0.928282
vn -0.34329 -0.432105 0.833928
vn -0.239597 -0.685001 0.688016
vn 0.614021 0.0550863 0.787365
vn -0.313268 -0.451593 0.83542
vn -0.622805 -0.137783 0.770149
vn 0.625801 0.108253 0.772434
vn -0.552254 0.225532 0.80259
vn 0.29608 0.235742 0.925615

g grp1
usemtl mtl1
f 3//3 1//1 2//2
f 2//2 1//1 5//5
f 2//2 5//5 29//29
f 29//29 5//5 30//30
f 29//29 30//30 49//49
f 49//49 30//30 31//31
f 49//49 31//31 50//50
f 50//50 31//31 53//53
f 50//50 53//53 66//66
f 66//66 53//53 69//69
f 66//66 69//69 68//68
f 68//68 69//69 81//81
f 68//68 81//81 74//74
f 74//74 81//81 82//82
f 74//74 82//82 73//73
f 73//73 82//82 78//78
f 73//73 78//78 97//97
f 97//97 78//78 59//59
f 97//97 59//59 95//95
f 95//95 59//59 92//92
f 5//5 1//1 4//4
f 4//4 1//1 11//11
f 4//4 11//11 12//12
f 12//12 11//11 20//20
f 12//12 20//20 21//21
f 7//7 4//4 6//6
f 6//6 4//4 12//12
f 6//6 12//12 14//14
f 14//14 12//12 21//21
f 14//14 21//21 22//22
f 4//4 7//7 5//5
f 5//5 7//7 30//30
f 7//7 6//6 8//8
f 8//8 6//6 13//13
f 8//8 13//13 34//34
f 34//34 13//13 15//15
f 34//34 15//15 35//35
f 35//35 15//15 22//22
f 35//35 22//22 38//38
f 38//38 22//22 39//39
f 38//38 39//39 40//40
f 1//1 3//3 9//9
f 9//9 3//3 32//32
f 9//9 32//32 10//10
f 9//9 10//10 11//11
f 11//11 10//10 16//16
f 11//11 16//16 19//19
f 9//9 11//11 1//1
f 6//6 14//14 13//13
f 13//13 14//14 15//15
f 18//18 16//16 17//17
f 17//17 16//16 10//10
f 17//17 10//10 33//33
f 20//20 11//11 19//19
f 22//22 15//15 14//14
f 86//86 87//87 23//23
f 23//23 87//87 41//41
f 23//23 41//41 42//42
f 42//42 41//41 60//60
f 42//42 60//60 61//61
f 61//61 60//60 79//79
f 61//61 79//79 80//80
f 80//80 79//79 83//83
f 80//80 83//83 84//84
f 84//84 83//83 81//81
f 84//84 81//81 71//71
f 71//71 81//81 69//69
f 71//71 69//69 70//70
f 70//70 69//69 53//53
f 70//70 53//53 54//54
f 54//54 53//53 35//35
f 54//54 35//35 57//57
f 57//57 35//35 38//38
f 57//57 38//38 40//40
f 86//86 23//23 88//88
f 88//88 23//23 24//24
f 88//88 24//24 89//89
f 89//89 24//24 25//25
f 89//89 25//25 90//90
f 90//90 25//25 26//26
f 90//90 26//26 91//91
f 91//91 26//26 93//93
f 28//28 2//2 27//27
f 27//27 2//2 29//29
f 27//27 29//29 48//48
f 48//48 29//29 49//49
f 48//48 49//49 66//66
f 66//66 49//49 50//50
f 2//2 28//28 3//3
f 3//3 28//28 32//32
f 7//7 8//8 30//30
f 30//30 8//8 31//31
f 85//85 32//32 33//33
f 33//33 32//32 51//51
f 33//33 51//51 52//52
f 52//52 51//51 64//64
f 52//52 64//64 67//67
f 67//67 64//64 65//65
f 67//67 65//65 66//66
f 66//66 65//65 48//48
f 8//8 34//34 31//31
f 31//31 34//34 53//53
f 37//37 17//17 36//36
f 36//36 17//17 33//33
f 36//36 33//33 52//52
f 18//18 17//17 37//37
f 87//87 92//92 41//41
f 41//41 92//92 59//59
f 41//41 59//59 60//60
f 60//60 59//59 78//78
f 60//60 78//78 79//79
f 79//79 78//78 82//82
f 79//79 82//82 83//83
f 83//83 82//82 81//81
f 23//23 42//42 24//24
f 24//24 42//42 43//43
f 24//24 43//43 25//25
f 25//25 43//43 44//44
f 25//25 44//44 26//26
f 26//26 44//44 45//45
f 26//26 45//45 93//93
f 93//93 45//45 94//94
f 47//47 27//27 46//46
f 46//46 27//27 48//48
f 46//46 48//48 65//65
f 27//27 47//47 28//28
f 28//28 47//47 51//51
f 28//28 51//51 32//32
f 53//53 34//34 35//35
f 56//56 36//36 55//55
f 55//55 36//36 52//52
f 55//55 52//52 73//73
f 73//73 52//52 74//74
f 37//37 36//36 56//56
f 58//58 57//57 40//40
f 42//42 61//61 43//43
f 43//43 61//61 62//62
f 43//43 62//62 44//44
f 44//44 62//62 63//63
f 44//44 63//63 45//45
f 45//45 63//63 96//96
f 45//45 96//96 94//94
f 47//47 46//46 64//64
f 64//64 46//46 65//65
f 47//47 64//64 51//51
f 66//66 68//68 67//67
f 67//67 68//68 74//74
f 67//67 74//74 52//52
f 56//56 55//55 72//72
f 72//72 55//55 73//73
f 71//71 70//70 75//75
f 75//75 70//70 57//57
f 75//75 57//57 76//76
f 76//76 57//57 96//96
f 76//76 96//96 63//63
f 75//75 76//76 77//77
f 77//77 76//76 63//63
f 77//77 63//63 80//80
f 80//80 63//63 62//62
f 80//80 62//62 61//61
f 57//57 70//70 54//54
f 71//71 75//75 84//84
f 84//84 75//75 77//77
f 84//84 77//77 80//80
