# wavefront obj file written by the visualization toolkit

mtllib C:/Users/hiteshganjoo/Downloads/Spl_pnl_brain_atlas_2007b/spl_pnl_brain_atlas_2007/03-models/nucleus_accumbens_L.mtl

v -2.8127 -11.4769 -5.66086
v -2.20901 -11.4889 -6.73832
v -1.76877 -11.1363 -5.83739
v -3.32262 -11.4579 -5.65619
v -3.51897 -10.963 -6.55235
v -4.01583 -10.3101 -6.20583
v -2.65348 -11.237 -5.31635
v -2.96129 -10.8597 -5.07001
v -3.15022 -11.1771 -5.34242
v -4.2049 -10.6149 -5.69803
v -3.67763 -11.1695 -5.2991
v -4.3998 -10.3601 -5.33292
v -3.47337 -10.6526 -4.97872
v -3.94464 -10.7286 -4.95805
v -1.65267 -10.481 -8.29924
v -1.55823 -8.88879 -8.8113
v -1.05816 -9.18154 -8.55575
v -2.08848 -10.6385 -8.4662
v -2.25396 -9.3044 -8.98502
v -3.40502 -10.4663 -8.60686
v -3.00941 -9.69183 -9.14796
v -3.92391 -10.4082 -8.75011
v -4.51754 -9.25822 -9.31655
v -4.77021 -9.60723 -8.87448
v -4.98809 -9.17926 -9.25023
v -5.05504 -9.12582 -9.0054
v -0.955467 -10.4227 -7.68399
v -0.591073 -8.79776 -8.42174
v -0.255389 -9.42753 -8.21794
v -1.46308 -10.5951 -7.82775
v -2.07237 -10.6745 -8.07868
v -3.49442 -9.67879 -7.96516
v -3.9008 -8.90939 -8.15982
v -4.34682 -8.8767 -8.50662
v -4.77908 -8.96774 -8.79018
v -0.18558 -9.67785 -7.43375
v 0.221858 -8.90182 -8.09771
v 0.630755 -9.25838 -7.10725
v -0.765066 -10.4411 -7.09844
v -1.18588 -10.6053 -7.16026
v -2.23588 -11.0542 -7.25049
v -3.10444 -9.83093 -7.56738
v -0.118403 -9.61253 -6.34571
v -0.710964 -10.1638 -6.5493
v -1.03942 -10.4247 -6.51675
v -1.2823 -10.495 -5.98858
v -3.48627 -9.663 -6.84995
v -4.25162 -9.27482 -6.24465
v -2.50684 -10.8677 -4.99022
v -1.47215 -10.1579 -5.2441
v -4.43318 -9.43061 -5.81778
v -4.64357 -9.40993 -5.25452
v -2.71158 -8.93649 -4.49767
v -3.5097 -8.87254 -4.45037
v -4.15621 -8.96577 -4.54435
v -1.52574 -7.77898 -8.86627
v -1.01738 -8.26384 -8.65472
v -2.14897 -8.24285 -9.04684
v -2.83776 -8.59728 -9.22362
v -4.29839 -8.63565 -9.37936
v -4.81985 -8.61936 -9.28755
v -5.12966 -8.52567 -8.93987
v -0.477934 -7.74093 -8.48933
v -0.0963092 -8.43275 -8.28454
v -3.74508 -8.85685 -7.83104
v -3.93106 -7.91739 -7.82561
v -4.21729 -7.8275 -8.28135
v -4.8138 -8.03769 -8.65975
v 0.866089 -8.30424 -7.20084
v 1.07783 -7.48691 -7.58224
v 1.43213 -7.22205 -7.04155
v 0.313647 -8.12476 -8.18396
v -3.61198 -8.9538 -7.31529
v -4.10454 -7.3941 -6.94842
v 0.750976 -7.48843 -6.20888
v 0.0639153 -9.13506 -5.78808
v 0.6112 -7.44288 -5.98238
v -0.490651 -9.6121 -5.98622
v -0.888405 -10.0687 -6.1332
v -4.43891 -8.75277 -6.143
v -4.31489 -7.49585 -6.68645
v -4.62636 -8.01702 -6.04066
v 0.422029 -7.5858 -5.74835
v 0.216858 -7.03487 -5.56421
v -0.399814 -9.04724 -5.48157
v -0.96478 -9.69026 -5.59607
v -4.93163 -8.6402 -5.1005
v -4.82121 -8.38583 -5.52742
v -5.09924 -7.93641 -5.18176
v -1.08234 -7.92038 -4.60014
v -1.97499 -8.25089 -4.50869
v -2.76515 -8.05436 -4.41029
v -3.33891 -8.17889 -4.40618
v -3.99271 -8.19447 -4.42813
v -4.64489 -8.14689 -4.51007
v -1.4569 -6.76984 -8.87945
v -0.988598 -7.16849 -8.64331
v -2.05142 -7.31996 -9.00536
v -2.7173 -7.53489 -9.21935
v -4.20393 -7.88482 -9.3352
v -5.00816 -7.3283 -8.96485
v -4.72618 -6.96011 -8.75466
v -0.403404 -6.80981 -8.48017
v 0.110557 -6.47086 -8.08194
v -2.71551 -5.93446 -8.00131
v -2.3665 -5.63371 -7.89811
v -2.47556 -5.89657 -8.18145
v -2.9795 -6.23979 -8.26938
v -3.08566 -6.20847 -7.91961
v -4.40188 -6.85764 -8.3026
v 0.756662 -6.19369 -7.56826
v 1.441 -6.82622 -7.09559
v 0.390029 -6.24635 -7.75842
v -2.73005 -5.65017 -7.63484
v -3.24755 -6.04132 -7.61255
v -3.97762 -6.39898 -6.93601
v 0.912673 -6.75918 -6.31333
v 0.684943 -6.90702 -6.11667
v 0.506244 -7.08893 -5.87398
v 0.443616 -6.47682 -5.92647
v -4.21739 -6.77871 -6.69062
v -4.68159 -6.8794 -6.17644
v 0.115335 -6.10309 -5.55557
v -4.89635 -7.24411 -5.78745
v -5.07465 -6.26328 -5.12192
v -1.03377 -5.8714 -4.91251
v -1.76557 -6.03421 -4.7622
v -2.51249 -6.15279 -4.68457
v -3.20671 -6.2425 -4.65712
v -3.83702 -6.28046 -4.68621
v -4.40423 -6.30533 -4.65742
v -1.85775 -5.78545 -8.56003
v -2.43361 -6.0265 -8.51468
v -3.33684 -6.41916 -8.68437
v -4.18379 -6.8324 -8.87666
v -0.463207 -5.51301 -8.0357
v -0.0210428 -5.64851 -7.75096
v -1.94966 -5.6011 -8.11895
v -1.51752 -5.06947 -7.78341
v 0.795701 -5.73025 -7.22817
v 1.53476 -6.47319 -7.13578
v 0.425227 -5.73605 -7.40343
v -2.03075 -5.07707 -7.45897
v -2.61027 -5.15845 -7.20056
v -3.12288 -5.52975 -7.23359
v -3.54951 -5.51435 -6.81078
v 1.0117 -6.22925 -6.48105
v 0.693676 -6.18222 -6.35091
v 0.250082 -5.56239 -6.06236
v -4.01286 -5.69671 -6.46382
v -4.2798 -5.31115 -5.92682
v -0.598097 -4.62195 -5.60698
v -4.71235 -5.66031 -5.80544
v -4.82915 -5.68498 -5.24128
v -0.917573 -4.99045 -5.28833
v -1.53288 -5.19325 -5.09749
v -2.22826 -5.33514 -4.98904
v -2.94488 -5.48536 -4.94674
v -3.54637 -5.66905 -4.92038
v -4.18078 -5.56508 -5.11193
v -0.401638 -5.10348 -7.59733
v 0.882919 -5.80229 -6.73054
v 0.435455 -5.55692 -6.77571
v -0.91238 -4.35355 -6.80811
v -1.46859 -4.41471 -6.70833
v -2.25457 -4.65813 -6.81499
v -2.94208 -5.00816 -6.80454
v -0.869493 -4.28367 -6.1468
v -1.27577 -3.9823 -6.18226
v -1.83706 -4.03811 -6.31132
v -2.67443 -4.5068 -6.3712
v -3.4134 -4.94908 -6.36409
v -3.8694 -5.05872 -6.11736
v -3.8957 -4.9116 -5.85624
v -0.96704 -4.47312 -5.64731
v -1.20858 -4.12888 -5.79524
v -4.67377 -5.28405 -5.61779
v -4.0321 -5.07628 -5.57414
v -1.3569 -4.54845 -5.44063
v -1.94155 -4.66365 -5.31005
v -2.6312 -4.82573 -5.26913
v -3.42537 -5.05515 -5.28939
v -1.83027 -3.90496 -5.88306
v -2.44318 -4.23192 -5.9511
v -3.11588 -4.53955 -5.993
v -3.59457 -4.7586 -5.99962
v -1.65799 -4.15182 -5.59561
v -2.2422 -4.31182 -5.58804
v -2.91706 -4.53522 -5.61718
v -3.52773 -4.73094 -5.70864
v -2.20901 -11.4889 -6.73832
v -3.32262 -11.4579 -5.65619
v -3.67763 -11.1695 -5.2991
v -3.92391 -10.4082 -8.75011
v -4.77021 -9.60723 -8.87448
v -5.05504 -9.12582 -9.0054
v 0.630755 -9.25838 -7.10725
v -2.23588 -11.0542 -7.25049
v -4.64357 -9.40993 -5.25452
v -5.12966 -8.52567 -8.93987
v -5.00816 -7.3283 -8.96485
v -4.72618 -6.96011 -8.75466
v -4.72618 -6.96011 -8.75466
v -2.9795 -6.23979 -8.26938
v -4.40188 -6.85764 -8.3026
v 1.441 -6.82622 -7.09559
v -3.33684 -6.41916 -8.68437
v -4.18379 -6.8324 -8.87666
v -1.94966 -5.6011 -8.11895
v -4.82915 -5.68498 -5.24128
v -4.67377 -5.28405 -5.61779
vn 0.0200267 -0.972165 0.233439
vn 0.407591 -0.900952 -0.148848
vn 0.566963 -0.731048 0.379633
vn -0.567236 -0.748029 -0.344522
vn -0.507847 -0.633781 -0.583449
vn -0.779281 -0.334582 -0.529883
vn 0.0801857 -0.742168 0.6654
vn -0.0993131 -0.488085 0.867127
vn -0.0447318 -0.680677 0.731217
vn -0.80359 -0.515315 -0.297815
vn -0.727561 -0.681946 0.0748615
vn -0.897626 -0.436058 0.0641928
vn 0.0213983 -0.405802 0.913711
vn -0.457018 -0.438492 0.77386
vn 0.433465 -0.629813 -0.644549
vn 0.339109 -0.155092 -0.927875
vn 0.456669 -0.28692 -0.842099
vn 0.244744 -0.722224 -0.64691
vn 0.338071 -0.194983 -0.920701
vn -0.358763 -0.916775 -0.175534
vn 0.127295 -0.301407 -0.94496
vn -0.20873 -0.562439 -0.800059
vn -0.0514595 -0.275529 -0.959914
vn -0.729717 -0.62159 -0.28485
vn -0.658359 -0.366317 -0.657552
vn -0.912734 -0.107196 -0.394241
vn 0.496271 -0.722668 -0.48111
vn 0.315993 -0.216816 -0.923655
vn 0.467907 -0.437264 -0.768026
vn 0.33481 -0.900142 -0.278651
vn -0.144845 -0.987592 -0.0606756
vn -0.706681 -0.514051 0.486162
vn -0.737236 -0.268174 0.620133
vn -0.525416 -0.167528 0.83419
vn -0.539905 -0.133241 0.831113
vn 0.677911 -0.70351 -0.213333
vn 0.679817 -0.367307 -0.634771
vn 0.670969 -0.666938 -0.324027
vn 0.585955 -0.807585 0.0668081
vn 0.473364 -0.879454 -0.0498606
vn 0.346911 -0.851431 -0.393343
vn -0.806565 -0.590934 -0.0158243
vn 0.714764 -0.618239 0.326947
vn 0.540682 -0.758734 0.3633
vn 0.630463 -0.743748 0.222161
vn 0.732379 -0.634436 0.24721
vn -0.74038 -0.326761 -0.587423
vn -0.781599 -0.200351 -0.590731
vn 0.216798 -0.502069 0.837213
vn 0.587091 -0.376821 0.71647
vn -0.892244 -0.211566 -0.398923
vn -0.906388 -0.236847 -0.349808
vn 0.0927918 -0.200382 0.975314
vn -0.0339229 -0.165793 0.985577
vn -0.348851 -0.270317 0.897347
vn 0.327483 -0.0279472 -0.944444
vn 0.358834 -0.064401 -0.931177
vn 0.287674 -0.0373988 -0.956998
vn 0.184725 -0.0439386 -0.981808
vn -0.0117151 -0.0252547 -0.999612
vn -0.498044 0.0786047 -0.863582
vn -0.743782 0.0199543 -0.668125
vn 0.408871 -0.0361569 -0.911876
vn 0.348945 -0.0606069 -0.935181
vn -0.898705 -0.324364 0.295155
vn -0.994292 0.106464 -0.0070126
vn -0.683152 0.0883104 0.724917
vn -0.627915 -0.0221995 0.777965
vn 0.924511 -0.374552 0.070639
vn 0.739367 -0.0856253 -0.667836
vn 0.957067 -0.228311 0.178595
vn 0.50444 0.0161726 -0.863295
vn -0.919669 -0.388837 -0.0549118
vn -0.936931 -0.104015 -0.333679
vn 0.839381 -0.22739 0.493694
vn 0.706618 -0.424552 0.566081
vn 0.814802 -0.0631383 0.576291
vn 0.505051 -0.676976 0.535376
vn 0.651443 -0.63091 0.421395
vn -0.85804 -0.180725 -0.480735
vn -0.80789 -0.0869691 -0.582881
vn -0.865055 -0.111985 -0.489018
vn 0.680546 -0.0775576 0.728589
vn 0.644266 0.019666 0.764549
vn 0.501689 -0.368844 0.782472
vn 0.570259 -0.49019 0.659181
vn -0.907965 -0.334182 0.25283
vn -0.884221 -0.21301 -0.415668
vn -0.992236 -0.123369 -0.0157515
vn 0.359445 -0.126136 0.924602
vn 0.23503 -0.0931683 0.967512
vn 0.0566302 0.0407809 0.997562
vn -0.0104618 0.0284028 0.999542
vn -0.0671262 0.0106303 0.997688
vn -0.565307 -0.0804061 0.820952
vn 0.231203 0.209466 -0.950089
vn 0.420886 0.225718 -0.878582
vn 0.144901 0.200813 -0.968854
vn 0.127241 0.223217 -0.966428
vn -0.0934086 0.23787 -0.966795
vn -0.38386 0.274568 -0.881626
vn -0.164041 0.456394 -0.874525
vn 0.403343 0.199608 -0.893012
vn 0.51121 0.170067 -0.842462
vn -0.517807 0.724223 -0.455387
vn -0.418225 0.718555 -0.555668
vn -0.439133 0.778501 -0.448439
vn -0.526903 0.812293 -0.250108
vn -0.725238 0.614474 -0.310566
vn -0.49159 0.0191373 0.870616
vn 0.48258 0.279756 -0.829972
vn 0.671329 -0.0445256 -0.739821
vn 0.537765 0.29892 -0.788324
vn -0.465319 0.655639 -0.594657
vn -0.639631 0.490965 -0.591461
vn -0.778488 0.315487 -0.542609
vn 0.693946 0.0711813 0.7165
vn 0.740598 0.0990668 0.664605
vn 0.755815 0.0778395 0.650143
vn 0.776727 0.171494 0.606041
vn -0.820543 0.126411 -0.557431
vn -0.760149 0.118377 -0.638874
vn 0.660288 0.221748 0.717529
vn -0.900288 -0.0345517 -0.43392
vn -0.944979 0.199046 0.259605
vn 0.341128 0.221333 0.913588
vn 0.0924638 0.232419 0.968211
vn 0.0463075 0.238108 0.970134
vn -0.0343273 0.256283 0.965992
vn -0.0485227 0.293712 0.954662
vn -0.242969 0.319739 0.915824
vn 0.321072 0.679975 -0.659202
vn -0.309454 0.69067 -0.653616
vn 0.0456519 0.425766 -0.903681
vn -0.106173 0.409226 -0.906235
vn 0.244088 0.48292 -0.840957
vn 0.548448 0.442859 -0.709282
vn -0.281168 0.700988 -0.655409
vn -0.0921807 0.749932 -0.655061
vn 0.490236 0.784064 -0.380673
vn 0.914607 0.375538 -0.149886
vn 0.461655 0.664763 -0.587337
vn -0.349783 0.732583 -0.58393
vn -0.398507 0.682441 -0.612753
vn -0.541987 0.585686 -0.60268
vn -0.591893 0.529558 -0.607643
vn 0.67002 0.24345 0.701289
vn 0.599462 0.387725 0.700225
vn 0.803561 0.464906 0.371689
vn -0.68618 0.401851 -0.60636
vn -0.607425 0.566686 -0.556688
vn 0.538161 0.607426 0.584308
vn -0.83419 0.252601 -0.490224
vn -0.943836 0.274851 -0.183388
vn 0.298621 0.424996 0.85452
vn 0.109069 0.392507 0.913259
vn 0.0103631 0.393631 0.91921
vn -0.0731105 0.430869 0.899448
vn -0.125534 0.452757 0.882753
vn -0.211388 0.60357 0.768777
vn 0.377353 0.738306 -0.559025
vn 0.567888 0.705639 0.423765
vn 0.599997 0.798763 0.04452
vn 0.283312 0.891733 -0.352912
vn -0.0330323 0.806781 -0.589927
vn -0.294189 0.729111 -0.61794
vn -0.441618 0.67652 -0.589317
vn 0.56542 0.823572 0.0450518
vn 0.318361 0.91383 -0.252115
vn -0.227354 0.838887 -0.49455
vn -0.410517 0.773739 -0.482498
vn -0.479739 0.657796 -0.58065
vn -0.555429 0.606323 -0.569097
vn -0.598798 0.791793 -0.120439
vn 0.362259 0.666545 0.651526
vn 0.41553 0.743326 0.524215
vn -0.662219 0.560335 -0.497485
vn -0.442896 0.832192 0.333615
vn 0.214967 0.49926 0.839362
vn 0.00132602 0.478149 0.878278
vn -0.134142 0.5495 0.824655
vn -0.235112 0.62697 0.742719
vn -0.115624 0.955106 0.272771
vn -0.430875 0.902304 0.0139639
vn -0.408044 0.895602 -0.177195
vn -0.469132 0.820043 -0.327788
vn 0.0668303 0.623153 0.77924
vn -0.243473 0.705028 0.666075
vn -0.315149 0.81433 0.487388
vn -0.404818 0.866438 0.292246
vn -0.520683 -0.410007 -0.748855
vn 0.0107066 -0.748005 0.663606
vn 0.0772405 -0.624594 0.777121
vn -0.421662 -0.295455 0.857267
vn -0.489283 -0.159879 0.857345
vn -0.559368 -0.136597 0.817587
vn 0.734436 -0.11554 0.668771
vn -0.728047 -0.580967 -0.363902
vn -0.698363 -0.28474 0.656668
vn -0.612628 -0.0697606 0.787287
vn -0.711694 0.10382 0.694775
vn -0.757826 0.118135 0.641673
vn -0.239198 0.969772 -0.0482279
vn -0.0303474 0.0161223 0.999409
vn -0.35132 0.933352 -0.0736809
vn 0.807372 -0.0157393 0.589833
vn -0.399643 0.913302 -0.078519
vn -0.328128 0.940955 -0.0832815
vn 0.844475 0.533528 -0.0470097
vn -0.351019 0.560418 0.750145
vn -0.267053 0.708112 0.653652

g grp1
usemtl mtl1
f 3//3 1//1 2//2
f 2//2 1//1 5//5
f 1//1 4//4 5//5
f 5//5 4//4 6//6
f 5//5 6//6 47//47
f 47//47 6//6 48//48
f 47//47 48//48 81//81
f 81//81 48//48 80//80
f 81//81 80//80 82//82
f 82//82 80//80 51//51
f 82//82 51//51 88//88
f 88//88 51//51 52//52
f 88//88 52//52 87//87
f 1//1 3//3 7//7
f 7//7 3//3 49//49
f 7//7 49//49 8//8
f 8//8 49//49 53//53
f 8//8 53//53 13//13
f 13//13 53//53 54//54
f 13//13 54//54 55//55
f 55//55 54//54 94//94
f 55//55 94//94 95//95
f 95//95 94//94 131//131
f 95//95 131//131 125//125
f 125//125 131//131 210//210
f 7//7 8//8 9//9
f 9//9 8//8 13//13
f 9//9 13//13 193//193
f 193//193 13//13 14//14
f 7//7 9//9 1//1
f 1//1 9//9 192//192
f 4//4 10//10 6//6
f 6//6 10//10 51//51
f 6//6 51//51 48//48
f 48//48 51//51 80//80
f 4//4 11//11 10//10
f 10//10 11//11 12//12
f 10//10 12//12 51//51
f 51//51 12//12 52//52
f 193//193 192//192 9//9
f 11//11 14//14 12//12
f 12//12 14//14 199//199
f 17//17 15//15 16//16
f 16//16 15//15 19//19
f 16//16 19//19 58//58
f 58//58 19//19 59//59
f 58//58 59//59 99//99
f 99//99 59//59 100//100
f 99//99 100//100 135//135
f 135//135 100//100 102//102
f 19//19 15//15 18//18
f 18//18 15//15 31//31
f 18//18 31//31 20//20
f 20//20 31//31 32//32
f 20//20 32//32 33//33
f 33//33 32//32 65//65
f 33//33 65//65 66//66
f 66//66 65//65 74//74
f 66//66 74//74 116//116
f 116//116 74//74 121//121
f 116//116 121//121 150//150
f 150//150 121//121 122//122
f 150//150 122//122 151//151
f 151//151 122//122 153//153
f 151//151 153//153 177//177
f 177//177 153//153 154//154
f 18//18 20//20 21//21
f 21//21 20//20 23//23
f 21//21 23//23 60//60
f 60//60 23//23 61//61
f 60//60 61//61 100//100
f 100//100 61//61 101//101
f 100//100 101//101 102//102
f 18//18 21//21 19//19
f 19//19 21//21 59//59
f 20//20 22//22 23//23
f 23//23 22//22 25//25
f 23//23 25//25 61//61
f 61//61 25//25 26//26
f 61//61 26//26 62//62
f 22//22 24//24 25//25
f 25//25 24//24 26//26
f 29//29 27//27 28//28
f 28//28 27//27 17//17
f 28//28 17//17 57//57
f 57//57 17//17 16//16
f 57//57 16//16 56//56
f 56//56 16//16 58//58
f 56//56 58//58 98//98
f 98//98 58//58 99//99
f 98//98 99//99 134//134
f 134//134 99//99 135//135
f 17//17 27//27 15//15
f 15//15 27//27 30//30
f 15//15 30//30 31//31
f 31//31 30//30 41//41
f 20//20 33//33 194//194
f 194//194 33//33 34//34
f 194//194 34//34 195//195
f 195//195 34//34 35//35
f 195//195 35//35 196//196
f 196//196 35//35 200//200
f 38//38 36//36 37//37
f 37//37 36//36 29//29
f 37//37 29//29 64//64
f 64//64 29//29 28//28
f 64//64 28//28 63//63
f 63//63 28//28 57//57
f 63//63 57//57 97//97
f 97//97 57//57 56//56
f 97//97 56//56 96//96
f 96//96 56//56 98//98
f 96//96 98//98 133//133
f 133//133 98//98 134//134
f 29//29 36//36 27//27
f 27//27 36//36 39//39
f 27//27 39//39 40//40
f 40//40 39//39 44//44
f 40//40 44//44 45//45
f 45//45 44//44 79//79
f 45//45 79//79 46//46
f 46//46 79//79 86//86
f 46//46 86//86 50//50
f 50//50 86//86 91//91
f 50//50 91//91 53//53
f 53//53 91//91 92//92
f 53//53 92//92 93//93
f 93//93 92//92 129//129
f 93//93 129//129 130//130
f 130//130 129//129 159//159
f 130//130 159//159 160//160
f 160//160 159//159 182//182
f 160//160 182//182 178//178
f 178//178 182//182 190//190
f 178//178 190//190 174//174
f 174//174 190//190 186//186
f 174//174 186//186 173//173
f 173//173 186//186 172//172
f 173//173 172//172 150//150
f 150//150 172//172 146//146
f 150//150 146//146 116//116
f 116//116 146//146 145//145
f 116//116 145//145 115//115
f 115//115 145//145 114//114
f 115//115 114//114 109//109
f 109//109 114//114 105//105
f 109//109 105//105 108//108
f 108//108 105//105 107//107
f 108//108 107//107 133//133
f 133//133 107//107 138//138
f 133//133 138//138 132//132
f 27//27 40//40 30//30
f 30//30 40//40 41//41
f 31//31 42//42 32//32
f 32//32 42//42 65//65
f 31//31 198//198 42//42
f 42//42 198//198 47//47
f 42//42 47//47 73//73
f 73//73 47//47 74//74
f 73//73 74//74 65//65
f 38//38 43//43 36//36
f 36//36 43//43 39//39
f 39//39 43//43 44//44
f 44//44 43//43 78//78
f 44//44 78//78 79//79
f 79//79 78//78 86//86
f 3//3 2//2 46//46
f 46//46 2//2 40//40
f 46//46 40//40 45//45
f 2//2 41//41 40//40
f 198//198 191//191 47//47
f 47//47 191//191 5//5
f 49//49 3//3 50//50
f 50//50 3//3 46//46
f 49//49 50//50 53//53
f 13//13 55//55 14//14
f 14//14 55//55 199//199
f 21//21 60//60 59//59
f 59//59 60//60 100//100
f 33//33 66//66 67//67
f 67//67 66//66 109//109
f 67//67 109//109 108//108
f 33//33 67//67 34//34
f 34//34 67//67 68//68
f 34//34 68//68 35//35
f 35//35 68//68 200//200
f 71//71 69//69 70//70
f 70//70 69//69 37//37
f 70//70 37//37 72//72
f 72//72 37//37 64//64
f 72//72 64//64 104//104
f 104//104 64//64 63//63
f 104//104 63//63 103//103
f 103//103 63//63 97//97
f 103//103 97//97 136//136
f 136//136 97//97 138//138
f 136//136 138//138 139//139
f 139//139 138//138 143//143
f 139//139 143//143 165//165
f 165//165 143//143 166//166
f 165//165 166//166 170//170
f 170//170 166//166 171//171
f 170//170 171//171 184//184
f 184//184 171//171 185//185
f 184//184 185//185 189//189
f 189//189 185//185 190//190
f 189//189 190//190 182//182
f 69//69 38//38 37//37
f 65//65 42//42 73//73
f 69//69 71//71 75//75
f 75//75 71//71 117//117
f 75//75 117//117 118//118
f 118//118 117//117 148//148
f 118//118 148//148 120//120
f 120//120 148//148 149//149
f 120//120 149//149 123//123
f 123//123 149//149 152//152
f 123//123 152//152 155//155
f 155//155 152//152 175//175
f 155//155 175//175 179//179
f 179//179 175//175 176//176
f 179//179 176//176 187//187
f 187//187 176//176 183//183
f 187//187 183//183 188//188
f 188//188 183//183 184//184
f 188//188 184//184 189//189
f 77//77 76//76 75//75
f 75//75 76//76 43//43
f 75//75 43//43 69//69
f 69//69 43//43 197//197
f 43//43 76//76 78//78
f 78//78 76//76 85//85
f 78//78 85//85 86//86
f 86//86 85//85 90//90
f 86//86 90//90 91//91
f 91//91 90//90 127//127
f 91//91 127//127 128//128
f 128//128 127//127 157//157
f 128//128 157//157 158//158
f 158//158 157//157 181//181
f 158//158 181//181 182//182
f 182//182 181//181 189//189
f 47//47 81//81 74//74
f 74//74 81//81 121//121
f 76//76 77//77 83//83
f 83//83 77//77 119//119
f 83//83 119//119 84//84
f 84//84 119//119 120//120
f 84//84 120//120 123//123
f 83//83 84//84 85//85
f 85//85 84//84 90//90
f 83//83 85//85 76//76
f 88//88 87//87 89//89
f 89//89 87//87 95//95
f 89//89 95//95 125//125
f 53//53 93//93 54//54
f 54//54 93//93 94//94
f 199//199 55//55 87//87
f 87//87 55//55 95//95
f 61//61 62//62 101//101
f 107//107 105//105 106//106
f 106//106 105//105 114//114
f 106//106 114//114 143//143
f 143//143 114//114 144//144
f 143//143 144//144 166//166
f 166//166 144//144 167//167
f 166//166 167//167 171//171
f 171//171 167//167 172//172
f 171//171 172//172 185//185
f 185//185 172//172 186//186
f 185//185 186//186 190//190
f 204//204 110//110 67//67
f 67//67 110//110 68//68
f 202//202 201//201 68//68
f 68//68 201//201 200//200
f 202//202 68//68 110//110
f 112//112 70//70 111//111
f 111//111 70//70 113//113
f 111//111 113//113 142//142
f 142//142 113//113 137//137
f 142//142 137//137 161//161
f 161//161 137//137 136//136
f 161//161 136//136 139//139
f 71//71 70//70 112//112
f 70//70 72//72 113//113
f 113//113 72//72 104//104
f 113//113 104//104 137//137
f 137//137 104//104 103//103
f 137//137 103//103 136//136
f 109//109 66//66 115//115
f 115//115 66//66 116//116
f 71//71 206//206 117//117
f 117//117 206//206 147//147
f 117//117 147//147 148//148
f 148//148 147//147 162//162
f 148//148 162//162 163//163
f 163//163 162//162 140//140
f 163//163 140//140 142//142
f 142//142 140//140 111//111
f 119//119 77//77 118//118
f 118//118 77//77 75//75
f 118//118 120//120 119//119
f 81//81 82//82 121//121
f 121//121 82//82 122//122
f 122//122 82//82 124//124
f 124//124 82//82 88//88
f 124//124 88//88 89//89
f 89//89 125//125 124//124
f 124//124 125//125 153//153
f 124//124 153//153 122//122
f 84//84 123//123 126//126
f 126//126 123//123 155//155
f 126//126 155//155 156//156
f 156//156 155//155 179//179
f 156//156 179//179 180//180
f 180//180 179//179 187//187
f 180//180 187//187 188//188
f 84//84 126//126 90//90
f 90//90 126//126 127//127
f 91//91 128//128 92//92
f 92//92 128//128 129//129
f 93//93 130//130 94//94
f 94//94 130//130 131//131
f 97//97 96//96 132//132
f 132//132 96//96 133//133
f 97//97 132//132 209//209
f 107//107 106//106 138//138
f 138//138 106//106 143//143
f 133//133 207//207 108//108
f 108//108 207//207 205//205
f 207//207 208//208 205//205
f 205//205 208//208 203//203
f 111//111 140//140 141//141
f 141//141 140//140 162//162
f 141//141 162//162 147//147
f 112//112 111//111 141//141
f 114//114 145//145 144//144
f 144//144 145//145 167//167
f 206//206 141//141 147//147
f 154//154 153//153 125//125
f 126//126 156//156 127//127
f 127//127 156//156 157//157
f 128//128 158//158 129//129
f 129//129 158//158 159//159
f 130//130 160//160 131//131
f 131//131 160//160 210//210
f 142//142 161//161 163//163
f 163//163 161//161 164//164
f 163//163 164//164 168//168
f 168//168 164//164 165//165
f 168//168 165//165 169//169
f 169//169 165//165 170//170
f 169//169 170//170 183//183
f 183//183 170//170 184//184
f 139//139 165//165 161//161
f 161//161 165//165 164//164
f 145//145 146//146 167//167
f 167//167 146//146 172//172
f 148//148 163//163 149//149
f 149//149 163//163 168//168
f 149//149 168//168 152//152
f 152//152 168//168 175//175
f 150//150 151//151 173//173
f 173//173 151//151 174//174
f 169//169 176//176 168//168
f 168//168 176//176 175//175
f 177//177 178//178 151//151
f 151//151 178//178 174//174
f 156//156 180//180 157//157
f 157//157 180//180 181//181
f 159//159 158//158 182//182
f 178//178 211//211 160//160
f 160//160 211//211 210//210
f 169//169 183//183 176//176
f 180//180 188//188 181//181
f 181//181 188//188 189//189
