# wavefront obj file written by the visualization toolkit

mtllib C:/Users/hiteshganjoo/Downloads/Spl_pnl_brain_atlas_2007b/spl_pnl_brain_atlas_2007/03-models/nucleus_habenulae_R.mtl

v 5.3792 -37.098 -8.27082
v 5.51551 -36.3856 -8.91049
v 6.20729 -36.4654 -8.35279
v 4.86084 -37.1139 -8.38721
v 4.92098 -36.5016 -9.03301
v 4.28264 -36.927 -8.41237
v 4.14099 -36.599 -9.05679
v 4.08847 -36.4638 -8.53068
v 5.88863 -36.5095 -7.79785
v 5.9391 -36.3845 -7.58945
v 5.07169 -37.2663 -7.87047
v 4.17525 -37.4645 -7.70294
v 4.01247 -36.3491 -8.20967
v 6.05578 -36.8222 -6.96537
v 6.06488 -36.2307 -7.3611
v 6.28954 -36.3368 -6.95765
v 5.12431 -37.594 -7.30305
v 4.22743 -37.6536 -7.27301
v 3.84786 -36.2772 -7.28289
v 6.29565 -36.3731 -6.70332
v 6.39539 -36.1103 -6.74114
v 6.38384 -36.053 -6.59168
v 6.09185 -36.7593 -6.56269
v 5.31017 -37.5757 -6.1404
v 4.81611 -37.4769 -6.3019
v 4.06604 -36.5603 -6.50462
v 6.2282 -36.2698 -6.48784
v 5.88781 -36.5747 -6.28584
v 5.37732 -36.5047 -6.09176
v 4.94144 -36.6391 -5.83633
v 5.5746 -35.8148 -8.84713
v 6.22411 -35.8765 -8.30243
v 4.94881 -35.8862 -8.96847
v 4.17219 -36.2287 -9.06906
v 4.15134 -35.8766 -8.37811
v 6.0067 -35.6247 -7.89125
v 5.80628 -35.5283 -7.54529
v 4.15486 -35.5679 -8.00803
v 6.34797 -36.0158 -6.84125
v 6.17105 -35.7733 -6.89615
v 6.3657 -35.8942 -6.69627
v 5.87565 -35.5529 -7.1949
v 3.92046 -35.5009 -7.18669
v 6.35492 -35.8639 -6.564
v 4.16142 -35.6509 -6.27387
v 6.31248 -35.9782 -6.48841
v 6.09014 -36.0344 -6.41431
v 5.66275 -36.0054 -6.3124
v 5.03191 -35.807 -6.09745
v 5.6538 -35.5249 -8.06927
v 4.74484 -35.1534 -8.34735
v 4.38801 -35.4605 -8.47139
v 5.45871 -35.2264 -7.34251
v 4.47407 -35.2927 -8.10931
v 6.1967 -35.7327 -6.65716
v 5.80867 -35.5068 -6.85962
v 5.29934 -35.2124 -6.90236
v 4.44208 -35.0189 -7.64666
v 6.23185 -35.8339 -6.50709
v 5.94956 -35.7416 -6.53101
v 5.47391 -35.5597 -6.53955
v 4.96346 -35.2984 -6.58816
v 4.22743 -37.6536 -7.27301
v 4.81611 -37.4769 -6.3019
v 4.81611 -37.4769 -6.3019
v 4.81611 -37.4769 -6.3019
v 6.22411 -35.8765 -8.30243
v 6.0067 -35.6247 -7.89125
v 5.80628 -35.5283 -7.54529
vn 0.420745 -0.839729 -0.343263
vn 0.428856 -0.195392 -0.881989
vn 0.916338 -0.398936 -0.0342821
vn 0.00696508 -0.855943 -0.517024
vn 0.157822 -0.360328 -0.919378
vn -0.723075 -0.612302 -0.319763
vn -0.571125 -0.547288 -0.611794
vn -0.989494 -0.0834977 -0.118028
vn 0.816726 -0.524474 0.240595
vn 0.952309 -0.263951 -0.153092
vn 0.423737 -0.86204 -0.278091
vn -0.58451 -0.70958 -0.393502
vn -0.975726 -0.0495588 -0.213315
vn 0.809304 -0.531366 -0.250354
vn 0.875886 0.0929676 -0.473478
vn 0.911955 -0.239388 -0.333215
vn 0.274101 -0.943515 -0.18614
vn 0.0812809 -0.959226 -0.2707
vn -0.997869 -0.0586395 -0.0286194
vn 0.90925 -0.387866 0.151078
vn 0.989884 -0.0794801 -0.117525
vn 0.935786 -0.10373 0.336965
vn 0.8135 -0.43297 0.38827
vn 0.444504 -0.658251 0.607553
vn -0.0713181 -0.992993 0.094232
vn -0.849835 -0.194923 0.489679
vn 0.681883 -0.219163 0.697856
vn 0.483511 -0.0507959 0.873863
vn 0.317575 0.00900812 0.94819
vn -0.0854944 -0.0957305 0.991729
vn 0.392337 0.557439 -0.731665
vn 0.586546 0.507876 -0.630893
vn 0.0171618 0.382788 -0.923677
vn -0.641321 0.297067 -0.707431
vn -0.909163 0.350575 -0.224765
vn 0.937703 -0.0435265 0.3447
vn 0.873044 0.110949 0.474853
vn -0.858576 0.406639 -0.312237
vn 0.863924 0.214716 -0.455557
vn 0.712002 0.616093 -0.336873
vn 0.890217 0.421442 -0.172916
vn 0.753564 0.638828 -0.155048
vn -0.857231 0.499013 0.127051
vn 0.778261 0.483126 0.401123
vn -0.508776 0.454024 0.731443
vn 0.556692 0.0780427 0.827045
vn 0.275172 0.200511 0.940253
vn 0.308586 0.345048 0.886407
vn 0.239217 0.466634 0.851485
vn 0.430211 0.865925 -0.255134
vn -0.0281448 0.911984 -0.409259
vn -0.612082 0.651792 -0.447798
vn 0.400142 0.914042 -0.0664295
vn -0.524224 0.811292 -0.258833
vn 0.495283 0.851732 0.171017
vn 0.477422 0.850699 0.219953
vn 0.290616 0.90126 0.321362
vn -0.268098 0.959329 -0.0883769
vn 0.296177 0.563802 0.770977
vn 0.213525 0.669568 0.711398
vn 0.32541 0.692094 0.644294
vn -0.0206965 0.860963 0.508246
vn -0.90809 -0.344281 0.23842
vn -0.660572 -0.400074 0.635283
vn -0.314832 -0.0233514 0.94886
vn 0.549856 -0.467094 0.692445
vn 0.864402 -0.0672985 0.498277
vn 0.35909 0.911424 -0.200897
vn 0.722433 0.652513 -0.228731

g grp1
usemtl mtl1
f 3//3 1//1 2//2
f 2//2 1//1 5//5
f 2//2 5//5 33//33
f 33//33 5//5 34//34
f 33//33 34//34 52//52
f 52//52 34//34 35//35
f 52//52 35//35 54//54
f 54//54 35//35 38//38
f 54//54 38//38 58//58
f 58//58 38//38 43//43
f 58//58 43//43 62//62
f 62//62 43//43 45//45
f 62//62 45//45 49//49
f 49//49 45//45 30//30
f 49//49 30//30 29//29
f 29//29 30//30 66//66
f 5//5 1//1 4//4
f 4//4 1//1 11//11
f 4//4 11//11 12//12
f 12//12 11//11 18//18
f 7//7 4//4 6//6
f 6//6 4//4 12//12
f 6//6 12//12 13//13
f 13//13 12//12 19//19
f 13//13 19//19 38//38
f 38//38 19//19 43//43
f 4//4 7//7 5//5
f 5//5 7//7 34//34
f 7//7 6//6 8//8
f 8//8 6//6 13//13
f 8//8 13//13 35//35
f 35//35 13//13 38//38
f 1//1 3//3 9//9
f 9//9 3//3 36//36
f 9//9 36//36 10//10
f 10//10 36//36 37//37
f 9//9 10//10 11//11
f 11//11 10//10 14//14
f 11//11 14//14 17//17
f 17//17 14//14 24//24
f 17//17 24//24 25//25
f 9//9 11//11 1//1
f 16//16 14//14 15//15
f 15//15 14//14 10//10
f 15//15 10//10 69//69
f 11//11 17//17 18//18
f 18//18 17//17 25//25
f 12//12 63//63 19//19
f 19//19 63//63 26//26
f 19//19 26//26 43//43
f 43//43 26//26 45//45
f 22//22 20//20 21//21
f 21//21 20//20 16//16
f 21//21 16//16 39//39
f 39//39 16//16 15//15
f 39//39 15//15 40//40
f 40//40 15//15 42//42
f 40//40 42//42 56//56
f 56//56 42//42 53//53
f 56//56 53//53 57//57
f 57//57 53//53 58//58
f 57//57 58//58 62//62
f 16//16 20//20 14//14
f 14//14 20//20 23//23
f 14//14 23//23 24//24
f 24//24 23//23 28//28
f 24//24 28//28 29//29
f 29//29 28//28 48//48
f 29//29 48//48 49//49
f 49//49 48//48 61//61
f 49//49 61//61 62//62
f 62//62 61//61 57//57
f 63//63 64//64 26//26
f 26//26 64//64 30//30
f 26//26 30//30 45//45
f 20//20 22//22 27//27
f 27//27 22//22 46//46
f 27//27 46//46 47//47
f 47//47 46//46 59//59
f 47//47 59//59 60//60
f 60//60 59//59 55//55
f 60//60 55//55 56//56
f 56//56 55//55 40//40
f 20//20 27//27 23//23
f 23//23 27//27 28//28
f 65//65 24//24 29//29
f 32//32 2//2 31//31
f 31//31 2//2 33//33
f 31//31 33//33 51//51
f 51//51 33//33 52//52
f 51//51 52//52 54//54
f 3//3 2//2 32//32
f 7//7 8//8 34//34
f 34//34 8//8 35//35
f 3//3 67//67 36//36
f 39//39 40//40 41//41
f 41//41 40//40 55//55
f 41//41 55//55 44//44
f 44//44 55//55 59//59
f 44//44 59//59 46//46
f 15//15 69//69 42//42
f 42//42 69//69 53//53
f 39//39 41//41 21//21
f 21//21 41//41 22//22
f 41//41 44//44 22//22
f 22//22 44//44 46//46
f 27//27 47//47 28//28
f 28//28 47//47 48//48
f 32//32 31//31 50//50
f 50//50 31//31 51//51
f 50//50 51//51 53//53
f 53//53 51//51 54//54
f 53//53 54//54 58//58
f 32//32 50//50 68//68
f 68//68 50//50 69//69
f 69//69 50//50 53//53
f 57//57 61//61 56//56
f 56//56 61//61 60//60
f 47//47 60//60 48//48
f 48//48 60//60 61//61
