# wavefront obj file written by the visualization toolkit

mtllib C:/Users/hiteshganjoo/Downloads/Spl_pnl_brain_atlas_2007b/spl_pnl_brain_atlas_2007/03-models/pineal_body.mtl

v 0.754137 -44.8588 -7.95597
v 1.00227 -44.8445 -8.24869
v 1.28129 -44.5548 -7.9586
v 0.222023 -44.8867 -7.97732
v 0.620205 -44.8698 -8.36275
v -0.215971 -44.8165 -7.95097
v -0.0601172 -44.7149 -8.40769
v -0.463879 -44.6594 -8.05988
v 0.911593 -44.5208 -7.57778
v 1.27397 -44.0536 -7.37032
v 0.424204 -44.5981 -7.53671
v -0.109155 -44.626 -7.56867
v -0.499091 -44.5466 -7.67622
v 0.750296 -43.8388 -7.04473
v 0.0384808 -44.0261 -7.07759
v -0.471325 -44.0926 -7.16188
v 1.43884 -43.9913 -9.11993
v 1.53043 -43.3644 -9.31743
v 1.8874 -43.5639 -9.02666
v 0.892003 -44.2067 -9.13706
v 1.06595 -43.6628 -9.37981
v 0.353286 -44.1545 -9.14985
v 0.640397 -43.8276 -9.35744
v 0.240884 -43.5727 -9.30269
v 1.77062 -44.1117 -8.83811
v 1.86079 -44.2534 -8.56979
v 1.2715 -44.5281 -8.62503
v 0.513418 -44.5832 -8.80475
v -0.110586 -43.9147 -9.04693
v 0.0360918 -44.4045 -8.87035
v -0.365775 -44.2287 -8.70157
v 1.78939 -44.2659 -8.21853
v 2.06009 -44.0696 -8.38107
v 2.21224 -43.5861 -8.01351
v -0.728302 -44.2821 -7.87089
v -0.57847 -44.361 -8.30836
v -0.837693 -43.8107 -8.13244
v 1.7558 -43.8486 -7.60148
v 2.1886 -43.0416 -7.3317
v -0.744152 -44.0874 -7.39157
v -0.906415 -43.634 -7.55895
v 1.552 -42.8806 -6.6588
v 0.846212 -42.9108 -6.55335
v 0.165854 -43.0743 -6.56437
v -0.436499 -43.2314 -6.59294
v -0.876889 -43.3794 -6.64058
v 1.56675 -42.6571 -9.31156
v 1.88167 -42.9741 -9.1611
v 1.12843 -42.9793 -9.43356
v 0.661204 -43.2666 -9.43594
v 0.223846 -42.8366 -9.2872
v 2.14183 -43.699 -8.58619
v 2.25579 -42.746 -8.75354
v -0.189199 -43.1944 -9.09307
v -0.678978 -43.9187 -8.51654
v -0.505543 -43.5975 -8.81039
v -0.792503 -43.2719 -8.44776
v 2.53183 -42.841 -8.21231
v 2.72133 -41.8545 -8.26537
v 2.88244 -42.0517 -7.86367
v -0.953722 -42.9728 -7.93553
v 2.62911 -42.5743 -7.60232
v 3.0685 -41.5685 -7.36033
v -0.960617 -42.8032 -7.28524
v 2.58649 -41.8389 -6.76037
v 1.90771 -42.0567 -6.68329
v 1.18951 -42.2689 -6.65598
v 0.424755 -42.3925 -6.62163
v -0.24951 -42.5707 -6.61201
v -0.751977 -42.7828 -6.62839
v 1.57003 -41.9478 -9.15126
v 1.93856 -42.2302 -9.03327
v 1.16138 -42.1926 -9.28923
v 0.682862 -42.5142 -9.35156
v 0.259738 -42.0624 -9.11237
v 2.31833 -41.5355 -8.61414
v -0.17179 -42.2985 -8.96182
v -0.557456 -42.7779 -8.75466
v -0.831299 -42.2924 -8.30626
v 2.8446 -40.4925 -8.16964
v 3.19747 -41.0359 -7.78225
v -1.02323 -41.7313 -7.72885
v 3.43655 -40.7925 -7.3281
v 3.64182 -40.1507 -7.52887
v 3.66435 -40.2098 -7.15894
v -0.963078 -41.9636 -7.133
v 3.42259 -40.7116 -6.80233
v 2.89387 -40.9856 -6.76958
v 2.31565 -41.2481 -6.77778
v 1.62882 -41.487 -6.7506
v 0.737078 -41.4705 -6.74267
v -0.106158 -41.6348 -6.6557
v -0.684958 -41.8796 -6.62746
v 1.80263 -41.2174 -8.80505
v 1.2579 -41.272 -8.95023
v 0.685158 -41.6395 -9.05353
v 2.11955 -40.3364 -8.38021
v 1.48016 -39.755 -8.37544
v 0.803332 -40.7436 -8.65009
v -0.0145054 -40.9843 -8.54653
v -0.520792 -41.8765 -8.59313
v 3.35028 -39.0982 -8.03112
v 3.48528 -39.8934 -7.85949
v 2.50759 -39.324 -8.08687
v 1.67526 -39.4551 -8.04678
v 1.91563 -39.1092 -7.95326
v 0.648544 -39.999 -8.07454
v -0.140948 -39.6543 -7.92399
v -0.674014 -39.5645 -7.95986
v -0.789485 -40.9852 -8.15204
v -1.04723 -39.8818 -7.90546
v 3.87635 -39.3376 -7.68438
v 3.98516 -39.3124 -7.32788
v 1.8776 -39.1888 -7.7226
v 0.891509 -40.0218 -7.42028
v 1.51603 -40.1209 -7.22732
v -0.076232 -39.2842 -7.37547
v -1.11368 -40.5173 -7.79119
v -1.20362 -40.3805 -7.34681
v 3.68763 -39.8511 -6.82162
v 3.17827 -40.1761 -6.8237
v 2.67469 -40.4991 -6.84089
v 2.11423 -40.3251 -6.95518
v -0.0793362 -40.4513 -6.73062
v -0.71125 -40.7199 -6.63257
v 3.81407 -38.9267 -7.88602
v 3.93393 -37.923 -8.02333
v 4.32063 -38.1647 -7.78209
v 3.4205 -37.7817 -8.08624
v 2.20217 -38.7623 -7.84798
v 2.51123 -38.3662 -7.79246
v -0.864301 -38.2474 -7.68996
v -0.516658 -38.4412 -7.53462
v -1.30674 -39.554 -7.72383
v -1.18714 -38.7836 -7.7924
v -1.83507 -38.1752 -7.7196
v 4.53203 -38.2122 -7.49054
v 2.34342 -38.8699 -7.5343
v 1.99413 -39.4474 -7.3314
v 2.39939 -39.4146 -7.19496
v -0.557785 -38.0509 -7.14458
v -1.75106 -38.3097 -7.36138
v 4.01239 -38.9798 -6.82307
v 3.48879 -39.2262 -6.83104
v 2.81852 -39.5802 -6.95958
v -0.746641 -38.3215 -6.7296
v -0.939746 -38.372 -6.70272
v 4.17525 -37.4645 -7.70294
v 3.38393 -37.5536 -7.90345
v -0.627637 -37.1951 -7.42295
v -1.27562 -37.2929 -7.67883
v 4.22743 -37.6536 -7.27301
v 3.24861 -37.8768 -7.30323
v 2.76288 -38.7472 -7.25655
v -0.736899 -36.8011 -7.25584
v -0.656762 -37.1427 -7.13114
v -1.20555 -37.2915 -7.214
v -0.8953 -37.0166 -7.10156
v -0.825419 -37.0965 -6.92072
v -0.818739 -36.7371 -7.07007
v 3.42259 -40.7116 -6.80233
v 1.91563 -39.1092 -7.95326
v 0.891509 -40.0218 -7.42028
v 0.891509 -40.0218 -7.42028
v 3.68763 -39.8511 -6.82162
v 2.20217 -38.7623 -7.84798
v 2.51123 -38.3662 -7.79246
v 4.17525 -37.4645 -7.70294
v 3.38393 -37.5536 -7.90345
v -0.627637 -37.1951 -7.42295
v -0.627637 -37.1951 -7.42295
v -0.627637 -37.1951 -7.42295
v -1.27562 -37.2929 -7.67883
v -0.736899 -36.8011 -7.25584
v -0.736899 -36.8011 -7.25584
v -1.20555 -37.2915 -7.214
v -0.825419 -37.0965 -6.92072
v -0.818739 -36.7371 -7.07007
vn 0.214293 -0.909775 0.35551
vn 0.409808 -0.910334 -0.0578796
vn 0.561861 -0.750014 0.348986
vn -0.07085 -0.979596 0.188072
vn 0.0287347 -0.946196 -0.322314
vn -0.339844 -0.933013 0.118287
vn -0.354417 -0.817791 -0.45344
vn -0.671916 -0.722239 -0.164013
vn 0.316866 -0.676703 0.664582
vn 0.431626 -0.592016 0.6806
vn 0.0791994 -0.718045 0.691476
vn -0.13326 -0.7654 0.629606
vn -0.578701 -0.718953 0.384983
vn 0.163869 -0.529126 0.83257
vn 0.0263902 -0.560007 0.828068
vn -0.228311 -0.645729 0.728635
vn 0.363187 -0.490176 -0.792353
vn 0.38261 -0.160915 -0.909789
vn 0.665017 -0.265339 -0.698103
vn 0.128026 -0.594596 -0.793766
vn 0.154144 -0.260654 -0.953047
vn -0.217787 -0.480789 -0.849359
vn -0.0889687 -0.311616 -0.946034
vn -0.36056 -0.137623 -0.922527
vn 0.57355 -0.536485 -0.619051
vn 0.652122 -0.704801 -0.279271
vn 0.38164 -0.821821 -0.423039
vn -0.0281514 -0.763166 -0.645589
vn -0.50437 -0.275451 -0.818375
vn -0.365071 -0.604035 -0.708425
vn -0.615719 -0.458029 -0.641171
vn 0.609287 -0.751561 0.252835
vn 0.836638 -0.547565 0.0144605
vn 0.844402 -0.474844 0.248009
vn -0.899752 -0.436121 -0.0156704
vn -0.770081 -0.499102 -0.397331
vn -0.954389 -0.210123 -0.212109
vn 0.615318 -0.576085 0.538061
vn 0.681976 -0.505195 0.528854
vn -0.78491 -0.525211 0.32874
vn -0.981925 -0.187691 0.0243957
vn 0.319637 -0.33413 0.886673
vn 0.0785052 -0.130473 0.988339
vn 0.0283433 -0.210177 0.977252
vn -0.0182835 -0.260393 0.96533
vn -0.728447 -0.306279 0.612827
vn 0.334322 0.113631 -0.935584
vn 0.607373 -0.0321149 -0.793767
vn 0.102537 0.0476503 -0.993587
vn -0.126471 -0.0183997 -0.9918
vn -0.368028 0.119919 -0.922049
vn 0.867331 -0.324332 -0.377553
vn 0.783875 -0.0789805 -0.615875
vn -0.55421 0.00909493 -0.832327
vn -0.830231 -0.252278 -0.497063
vn -0.703681 -0.123478 -0.699705
vn -0.892358 -0.0396625 -0.449583
vn 0.922166 -0.307213 -0.235011
vn 0.790385 -0.0996104 -0.604458
vn 0.930299 -0.318724 -0.181544
vn -0.985729 -0.0519442 -0.160125
vn 0.862157 -0.446047 0.240267
vn 0.893381 -0.436422 0.106797
vn -0.991725 -0.0159318 0.127392
vn 0.452132 -0.275003 0.848499
vn 0.0491188 0.0599453 0.996992
vn 0.0395156 0.0997928 0.994223
vn 0.0135647 0.100632 0.994831
vn -0.0198239 0.044252 0.998824
vn -0.588369 0.0485266 0.807135
vn 0.286597 0.276154 -0.917388
vn 0.557323 0.155536 -0.815597
vn 0.0526143 0.264313 -0.963001
vn -0.141556 0.213642 -0.966602
vn -0.329009 0.296229 -0.896662
vn 0.557088 0.138979 -0.818742
vn -0.517908 0.214052 -0.828223
vn -0.717618 0.0811966 -0.691687
vn -0.87473 0.0629793 -0.480502
vn 0.464448 0.0223454 -0.885318
vn 0.847596 -0.261278 -0.46186
vn -0.979531 -0.0471611 -0.195691
vn 0.916369 -0.389709 -0.0916197
vn 0.886009 -0.3297 -0.326015
vn 0.940807 -0.332054 0.0679888
vn -0.956983 -0.0456224 0.286533
vn 0.888162 -0.416162 0.194876
vn -0.0170994 0.055378 0.998319
vn -0.0295067 0.110417 0.993447
vn -0.000134092 0.140356 0.990101
vn 0.0281147 0.231184 0.972504
vn 0.0635195 0.0528258 0.996582
vn -0.488449 0.00601688 0.872572
vn 0.355 0.29621 -0.886699
vn 0.0340981 0.363955 -0.930792
vn -0.158648 0.372721 -0.914281
vn 0.297961 0.303814 -0.90494
vn -0.00596312 0.512455 -0.858693
vn -0.241905 0.458261 -0.855266
vn -0.279958 0.378144 -0.8824
vn -0.619487 0.206395 -0.757389
vn 0.243208 -0.0712188 -0.967356
vn 0.615763 -0.212767 -0.75866
vn -0.0276743 0.202401 -0.978912
vn -0.382004 0.742333 -0.550468
vn -0.0894791 0.336538 -0.937409
vn -0.120111 0.797932 -0.590658
vn 0.297989 0.51868 -0.801357
vn -0.0272582 0.23929 -0.970565
vn -0.658422 0.0973355 -0.746328
vn -0.503635 0.0269846 -0.863495
vn 0.78517 -0.316632 -0.532215
vn 0.923899 -0.373497 -0.0831328
vn -0.670789 0.641906 0.371482
vn 0.114774 0.456079 0.882507
vn -0.317948 0.467338 0.824927
vn 0.811157 0.580626 0.0699804
vn -0.868121 -0.0973884 -0.486704
vn -0.977139 -0.172338 0.124498
vn 0.927527 -0.303953 0.217498
vn -0.0764678 0.0713307 0.994517
vn -0.119308 0.133613 0.983826
vn -0.193525 0.26945 0.943369
vn 0.325241 0.190852 0.926172
vn -0.384273 -0.0322564 0.922656
vn 0.48332 -0.205467 -0.850991
vn 0.346329 0.17266 -0.922087
vn 0.722545 -0.144662 -0.676019
vn -0.180685 0.322289 -0.929238
vn -0.335595 0.370558 -0.866061
vn -0.539232 0.497239 -0.679693
vn 0.298546 0.164408 -0.940128
vn 0.79753 0.276698 -0.536083
vn -0.697534 -0.137045 -0.703324
vn -0.142034 0.0658295 -0.98767
vn -0.890865 0.0903823 -0.445187
vn 0.999503 -0.0102223 -0.0298065
vn -0.580274 0.517547 0.62883
vn -0.449225 0.465731 0.762424
vn -0.395435 0.368582 0.841296
vn 0.937758 0.20214 0.282399
vn -0.841046 0.0225578 0.540493
vn 0.609583 -0.0737685 0.789282
vn -0.143998 0.172941 0.974349
vn -0.285459 0.223958 0.931856
vn 0.612799 0.181714 0.769063
vn -0.369027 0.13236 0.919945
vn 0.701984 0.399448 -0.589627
vn -0.0401924 0.57739 -0.815479
vn 0.401807 0.139272 -0.905071
vn 0.158612 0.106928 -0.981534
vn 0.286293 0.542864 0.789516
vn -0.40622 0.594425 0.694006
vn -0.584086 0.452377 0.673942
vn 0.943262 0.284066 0.171939
vn 0.942309 0.183181 0.280175
vn -0.689748 0.577812 0.436327
vn -0.87511 0.357305 0.326366
vn 0.681433 0.159452 0.7143
vn 0.855 0.27529 0.439534
vn 0.0265415 0.0234702 0.999372
vn -0.804487 0.589728 0.0708626
vn -0.579633 0.814791 0.0119235
vn 0.589333 0.784865 -0.191507
vn -0.0179045 0.0166004 0.999702
vn -0.722211 0.588359 0.363655
vn -0.593377 0.539891 0.597011
vn -0.210933 0.882139 0.421115
vn -0.563517 0.714442 0.414755
vn 0.98404 0.164121 0.0687654
vn -0.367174 0.275086 -0.888544
vn -0.157289 0.987334 0.0207762
vn -0.548382 0.832375 0.080189
vn -0.839681 0.528867 -0.123433
vn -0.367174 0.275086 -0.888544
vn -0.367174 0.275086 -0.888544
vn -0.890744 0.172564 0.420471
vn -0.963592 0.266461 -0.0221337

g grp1
usemtl mtl1
f 3//3 1//1 2//2
f 2//2 1//1 5//5
f 2//2 5//5 27//27
f 27//27 5//5 28//28
f 27//27 28//28 20//20
f 20//20 28//28 22//22
f 20//20 22//22 23//23
f 23//23 22//22 24//24
f 23//23 24//24 50//50
f 50//50 24//24 51//51
f 50//50 51//51 74//74
f 74//74 51//51 75//75
f 74//74 75//75 96//96
f 96//96 75//75 100//100
f 96//96 100//100 99//99
f 99//99 100//100 107//107
f 99//99 107//107 98//98
f 98//98 107//107 105//105
f 98//98 105//105 97//97
f 97//97 105//105 104//104
f 97//97 104//104 80//80
f 80//80 104//104 102//102
f 80//80 102//102 103//103
f 103//103 102//102 126//126
f 103//103 126//126 112//112
f 112//112 126//126 128//128
f 112//112 128//128 113//113
f 113//113 128//128 137//137
f 113//113 137//137 143//143
f 143//143 137//137 152//152
f 143//143 152//152 144//144
f 144//144 152//152 153//153
f 144//144 153//153 145//145
f 145//145 153//153 154//154
f 145//145 154//154 140//140
f 140//140 154//154 138//138
f 140//140 138//138 139//139
f 139//139 138//138 114//114
f 139//139 114//114 116//116
f 116//116 114//114 115//115
f 116//116 115//115 91//91
f 91//91 115//115 124//124
f 91//91 124//124 92//92
f 92//92 124//124 125//125
f 92//92 125//125 93//93
f 93//93 125//125 119//119
f 93//93 119//119 86//86
f 86//86 119//119 82//82
f 86//86 82//82 64//64
f 64//64 82//82 61//61
f 64//64 61//61 41//41
f 41//41 61//61 37//37
f 41//41 37//37 35//35
f 35//35 37//37 36//36
f 35//35 36//36 8//8
f 8//8 36//36 7//7
f 8//8 7//7 6//6
f 6//6 7//7 4//4
f 6//6 4//4 12//12
f 12//12 4//4 11//11
f 12//12 11//11 15//15
f 15//15 11//11 14//14
f 15//15 14//14 44//44
f 44//44 14//14 43//43
f 44//44 43//43 68//68
f 68//68 43//43 67//67
f 68//68 67//67 91//91
f 91//91 67//67 90//90
f 91//91 90//90 123//123
f 123//123 90//90 89//89
f 123//123 89//89 122//122
f 122//122 89//89 88//88
f 122//122 88//88 121//121
f 121//121 88//88 161//161
f 121//121 161//161 165//165
f 5//5 1//1 4//4
f 4//4 1//1 11//11
f 4//4 7//7 5//5
f 5//5 7//7 28//28
f 3//3 9//9 1//1
f 1//1 9//9 11//11
f 3//3 10//10 9//9
f 9//9 10//10 14//14
f 9//9 14//14 11//11
f 6//6 13//13 8//8
f 8//8 13//13 35//35
f 6//6 12//12 13//13
f 13//13 12//12 16//16
f 13//13 16//16 40//40
f 40//40 16//16 46//46
f 40//40 46//46 41//41
f 41//41 46//46 64//64
f 12//12 15//15 16//16
f 16//16 15//15 45//45
f 16//16 45//45 46//46
f 46//46 45//45 70//70
f 46//46 70//70 64//64
f 64//64 70//70 86//86
f 19//19 17//17 18//18
f 18//18 17//17 21//21
f 18//18 21//21 49//49
f 49//49 21//21 50//50
f 49//49 50//50 74//74
f 21//21 17//17 20//20
f 20//20 17//17 27//27
f 20//20 23//23 21//21
f 21//21 23//23 50//50
f 17//17 19//19 25//25
f 25//25 19//19 52//52
f 25//25 52//52 26//26
f 26//26 52//52 33//33
f 26//26 33//33 32//32
f 32//32 33//33 34//34
f 32//32 34//34 38//38
f 38//38 34//34 39//39
f 38//38 39//39 42//42
f 42//42 39//39 65//65
f 42//42 65//65 66//66
f 66//66 65//65 89//89
f 66//66 89//89 90//90
f 25//25 26//26 27//27
f 27//27 26//26 32//32
f 27//27 32//32 3//3
f 3//3 32//32 38//38
f 3//3 38//38 10//10
f 10//10 38//38 42//42
f 10//10 42//42 14//14
f 14//14 42//42 43//43
f 25//25 27//27 17//17
f 22//22 29//29 24//24
f 24//24 29//29 54//54
f 24//24 54//54 51//51
f 51//51 54//54 77//77
f 51//51 77//77 75//75
f 75//75 77//77 100//100
f 29//29 22//22 30//30
f 30//30 22//22 28//28
f 30//30 28//28 7//7
f 29//29 30//30 31//31
f 31//31 30//30 7//7
f 31//31 7//7 36//36
f 27//27 3//3 2//2
f 13//13 40//40 35//35
f 35//35 40//40 41//41
f 15//15 44//44 45//45
f 45//45 44//44 69//69
f 45//45 69//69 70//70
f 70//70 69//69 93//93
f 70//70 93//93 86//86
f 48//48 18//18 47//47
f 47//47 18//18 49//49
f 47//47 49//49 73//73
f 73//73 49//49 74//74
f 73//73 74//74 96//96
f 18//18 48//48 19//19
f 19//19 48//48 53//53
f 19//19 53//53 52//52
f 52//52 53//53 58//58
f 52//52 58//58 34//34
f 34//34 58//58 62//62
f 34//34 62//62 39//39
f 39//39 62//62 65//65
f 56//56 31//31 55//55
f 55//55 31//31 36//36
f 55//55 36//36 37//37
f 31//31 56//56 29//29
f 29//29 56//56 54//54
f 56//56 55//55 57//57
f 57//57 55//55 37//37
f 57//57 37//37 61//61
f 60//60 58//58 59//59
f 59//59 58//58 53//53
f 59//59 53//53 76//76
f 76//76 53//53 72//72
f 76//76 72//72 94//94
f 94//94 72//72 71//71
f 94//94 71//71 95//95
f 95//95 71//71 73//73
f 95//95 73//73 96//96
f 52//52 34//34 33//33
f 58//58 60//60 62//62
f 62//62 60//60 63//63
f 62//62 63//63 65//65
f 65//65 63//63 87//87
f 43//43 42//42 67//67
f 67//67 42//42 66//66
f 67//67 66//66 90//90
f 44//44 68//68 69//69
f 69//69 68//68 92//92
f 69//69 92//92 93//93
f 72//72 47//47 71//71
f 71//71 47//47 73//73
f 47//47 72//72 48//48
f 48//48 72//72 53//53
f 54//54 56//56 78//78
f 78//78 56//56 57//57
f 78//78 57//57 79//79
f 79//79 57//57 61//61
f 79//79 61//61 82//82
f 54//54 78//78 77//77
f 77//77 78//78 101//101
f 77//77 101//101 100//100
f 100//100 101//101 110//110
f 100//100 110//110 109//109
f 109//109 110//110 111//111
f 109//109 111//111 135//135
f 135//135 111//111 134//134
f 135//135 134//134 136//136
f 136//136 134//134 119//119
f 136//136 119//119 142//142
f 142//142 119//119 125//125
f 142//142 125//125 147//147
f 147//147 125//125 124//124
f 147//147 124//124 146//146
f 146//146 124//124 117//117
f 146//146 117//117 141//141
f 141//141 117//117 133//133
f 141//141 133//133 156//156
f 156//156 133//133 170//170
f 156//156 170//170 155//155
f 81//81 59//59 80//80
f 80//80 59//59 76//76
f 80//80 76//76 97//97
f 97//97 76//76 94//94
f 97//97 94//94 98//98
f 98//98 94//94 95//95
f 98//98 95//95 99//99
f 99//99 95//95 96//96
f 59//59 81//81 60//60
f 60//60 81//81 63//63
f 85//85 83//83 84//84
f 84//84 83//83 81//81
f 84//84 81//81 103//103
f 103//103 81//81 80//80
f 81//81 83//83 63//63
f 63//63 83//83 87//87
f 83//83 85//85 87//87
f 87//87 85//85 120//120
f 161//161 88//88 65//65
f 65//65 88//88 89//89
f 68//68 91//91 92//92
f 78//78 79//79 101//101
f 101//101 79//79 110//110
f 105//105 106//106 104//104
f 104//104 106//106 130//130
f 104//104 130//130 129//129
f 129//129 130//130 131//131
f 129//129 131//131 149//149
f 109//109 108//108 100//100
f 100//100 108//108 107//107
f 79//79 82//82 110//110
f 110//110 82//82 118//118
f 110//110 118//118 111//111
f 111//111 118//118 134//134
f 113//113 84//84 112//112
f 112//112 84//84 103//103
f 84//84 113//113 85//85
f 85//85 113//113 120//120
f 162//162 105//105 114//114
f 114//114 105//105 163//163
f 105//105 107//107 163//163
f 108//108 117//117 107//107
f 107//107 117//117 164//164
f 82//82 119//119 118//118
f 118//118 119//119 134//134
f 91//91 123//123 116//116
f 116//116 123//123 139//139
f 115//115 117//117 124//124
f 128//128 126//126 127//127
f 127//127 126//126 102//102
f 127//127 102//102 129//129
f 129//129 102//102 104//104
f 133//133 109//109 132//132
f 132//132 109//109 135//135
f 132//132 135//135 151//151
f 151//151 135//135 136//136
f 109//109 133//133 108//108
f 108//108 133//133 117//117
f 167//167 166//166 138//138
f 138//138 166//166 114//114
f 114//114 166//166 162//162
f 120//120 113//113 143//143
f 121//121 165//165 144//144
f 144//144 165//165 143//143
f 122//122 121//121 145//145
f 145//145 121//121 144//144
f 139//139 123//123 140//140
f 140//140 123//123 145//145
f 145//145 123//123 122//122
f 128//128 127//127 148//148
f 148//148 127//127 149//149
f 127//127 129//129 149//149
f 133//133 132//132 150//150
f 150//150 132//132 151//151
f 152//152 137//137 148//148
f 148//148 137//137 128//128
f 168//168 169//169 153//153
f 153//153 169//169 154//154
f 153//153 152//152 168//168
f 138//138 154//154 167//167
f 167//167 154//154 169//169
f 174//174 157//157 158//158
f 158//158 157//157 147//147
f 158//158 147//147 177//177
f 175//175 171//171 176//176
f 172//172 173//173 157//157
f 157//157 173//173 136//136
f 157//157 136//136 142//142
f 141//141 156//156 159//159
f 159//159 156//156 160//160
f 141//141 159//159 146//146
f 146//146 159//159 147//147
f 142//142 147//147 157//157
f 155//155 160//160 156//156
f 174//174 158//158 178//178
f 178//178 158//158 177//177
