# wavefront obj file written by the visualization toolkit

mtllib C:/Users/hiteshganjoo/Downloads/Spl_pnl_brain_atlas_2007b/spl_pnl_brain_atlas_2007/03-models/septal_nucleus_R.mtl

v 7.08207 -14.401 -5.57633
v 7.34227 -13.8832 -6.07671
v 8.25357 -14.2728 -5.71537
v 6.34283 -14.2906 -5.50626
v 6.73119 -13.9437 -5.89304
v 5.6597 -14.2869 -5.54784
v 6.08475 -13.9246 -5.9395
v 5.10621 -14.3132 -5.65894
v 5.42328 -13.8629 -6.0236
v 4.66159 -14.4814 -5.73639
v 4.90278 -14.0429 -6.02611
v 4.35707 -13.8541 -5.77108
v 7.31594 -14.6957 -5.03066
v 8.28099 -14.2607 -5.19225
v 6.59898 -14.5511 -5.00165
v 5.87497 -14.5446 -5.02023
v 5.15491 -14.6753 -5.08419
v 4.28573 -14.7771 -5.02511
v 4.17096 -14.1138 -5.16626
v 8.06369 -14.3458 -4.6471
v 7.98534 -14.0135 -4.11545
v 6.83595 -14.6564 -4.3932
v 6.11191 -14.6358 -4.45217
v 5.39726 -14.7215 -4.49819
v 4.70238 -14.9218 -4.47201
v 4.08053 -13.8209 -4.49539
v 6.93967 -14.7545 -3.71597
v 7.92286 -13.8839 -3.58237
v 6.33945 -14.6035 -3.82836
v 5.64117 -14.6442 -3.96366
v 4.95257 -14.7954 -3.99809
v 4.01609 -14.2672 -3.80938
v 7.02697 -13.8221 -2.91711
v 6.10238 -13.5375 -2.88225
v 5.36972 -13.875 -3.54392
v 4.8614 -13.5817 -3.63585
v 7.48331 -13.3372 -6.31499
v 8.19086 -12.604 -5.87379
v 6.95593 -13.4048 -6.23873
v 5.93028 -12.927 -6.12446
v 5.41643 -12.9855 -6.02993
v 5.55168 -12.7587 -5.73468
v 5.01253 -13.0565 -5.97029
v 8.29696 -12.8165 -5.37969
v 8.42703 -13.0283 -5.05785
v 8.16815 -12.7119 -4.95251
v 5.12612 -12.8168 -5.62428
v 4.79013 -12.8824 -5.61351
v 4.13021 -13.0987 -5.01022
v 8.11612 -11.9994 -4.54156
v 8.30579 -12.209 -4.12826
v 8.28898 -13.4967 -4.33622
v 4.83431 -12.7124 -4.13846
v 5.19616 -12.5132 -4.11829
v 5.16629 -12.5204 -4.48148
v 4.78884 -12.6707 -4.62099
v 4.40132 -12.8494 -4.13888
v 8.24064 -13.4633 -3.84562
v 8.29762 -11.9516 -3.54078
v 4.97801 -12.6942 -3.84001
v 4.53695 -12.9486 -3.67962
v 5.01823 -12.7753 -3.56614
v 8.01933 -12.4339 -3.10885
v 7.08278 -12.5297 -2.93293
v 6.15307 -12.747 -2.82722
v 5.34805 -12.7499 -3.29017
v 7.80169 -12.3223 -5.85006
v 7.31567 -12.034 -5.96807
v 5.96319 -12.4738 -5.70532
v 7.23134 -11.5141 -5.04196
v 5.98997 -12.1366 -5.22298
v 5.36392 -12.5261 -5.13106
v 4.7081 -12.6138 -5.20673
v 7.47845 -10.784 -4.50275
v 8.27647 -11.4589 -4.02392
v 7.00989 -11.0502 -4.66997
v 5.69191 -12.1156 -4.41794
v 6.10697 -11.3524 -4.06416
v 8.30734 -11.1649 -3.4846
v 5.79264 -11.9299 -3.74305
v 6.09214 -11.2858 -3.48136
v 5.34597 -12.4603 -3.75663
v 7.78827 -10.8466 -2.92711
v 7.18467 -11.0668 -2.91504
v 7.47608 -10.3465 -3.79528
v 6.91101 -10.3615 -3.84991
v 7.75922 -10.3106 -3.48663
v 7.15113 -10.3598 -3.56816
v 8.25357 -14.2728 -5.71537
v 4.28573 -14.7771 -5.02511
v 7.98534 -14.0135 -4.11545
v 7.98534 -14.0135 -4.11545
v 8.19086 -12.604 -5.87379
v 8.19086 -12.604 -5.87379
v 8.19086 -12.604 -5.87379
v 8.16815 -12.7119 -4.95251
v 8.28898 -13.4967 -4.33622
v 4.53695 -12.9486 -3.67962
v 6.91101 -10.3615 -3.84991
v 7.75922 -10.3106 -3.48663
v 7.75922 -10.3106 -3.48663
vn -0.11435 -0.795335 -0.595287
vn 0.114267 -0.490866 -0.863709
vn 0.227096 -0.745301 -0.62686
vn -0.0427937 -0.822156 -0.567652
vn -0.128338 -0.534948 -0.835081
vn 0.0997575 -0.801134 -0.590112
vn 0.0531941 -0.547937 -0.834826
vn 0.234273 -0.792482 -0.563106
vn 0.0323929 -0.353996 -0.934686
vn -0.350387 -0.644204 -0.679874
vn -0.0654408 -0.340772 -0.937866
vn -0.735297 0.0390041 -0.676622
vn 0.13522 -0.983267 -0.122075
vn 0.913373 -0.402209 -0.0630683
vn -0.0989755 -0.954914 -0.279898
vn 0.0911778 -0.941124 -0.325533
vn 0.161378 -0.912296 -0.376396
vn 0.179556 -0.918969 -0.351077
vn -0.938759 -0.178254 -0.294884
vn 0.704304 -0.547469 0.451922
vn 0.675874 -0.709896 0.198094
vn 0.098474 -0.993976 0.0481126
vn 0.0406104 -0.997507 -0.0577119
vn 0.200424 -0.97835 -0.0515867
vn -0.278411 -0.960112 0.0259416
vn -0.994278 -0.0499468 0.0944328
vn 0.258649 -0.909407 0.325699
vn 0.688037 -0.502004 0.524021
vn -0.143528 -0.904888 0.400721
vn -0.0149574 -0.878985 0.476615
vn -0.0256716 -0.75299 0.657531
vn -0.67544 -0.371886 0.636774
vn 0.133203 -0.353256 0.925995
vn -0.3203 -0.390266 0.863192
vn -0.329651 -0.353194 0.875548
vn -0.28105 -0.137987 0.949721
vn 0.250271 0.0171803 -0.968023
vn 0.580193 -0.262583 -0.770991
vn -0.150421 -0.0245481 -0.988317
vn -0.112119 0.226283 -0.967587
vn -0.222948 0.556127 -0.800635
vn -0.314391 0.793402 -0.521222
vn -0.307076 0.417238 -0.855346
vn 0.88801 0.45466 -0.0687267
vn 0.950151 0.161235 0.266864
vn 0.899443 0.432905 0.0599599
vn -0.185648 0.84444 -0.50245
vn -0.497607 0.63385 -0.592133
vn -0.865989 0.458652 -0.199251
vn 0.781985 0.292866 -0.550208
vn 0.991026 0.0218321 -0.131872
vn 0.994167 -0.0882979 -0.0619334
vn -0.403872 0.902985 0.146645
vn -0.542709 0.834741 0.0931428
vn -0.490165 0.871286 -0.0244846
vn -0.38888 0.919846 0.0515404
vn -0.674334 0.712787 0.192895
vn 0.93563 -0.242371 0.256618
vn 0.954042 -0.0250681 0.298624
vn -0.488274 0.845585 0.215812
vn -0.656031 0.705589 0.267894
vn -0.518581 0.553817 0.65143
vn 0.543284 -0.113382 0.831858
vn 0.150151 -0.00848988 0.988627
vn -0.31693 0.162504 0.934424
vn -0.576839 0.252003 0.777014
vn 0.619549 0.683897 -0.385284
vn -0.0385013 0.599014 -0.799812
vn -0.318686 0.673565 -0.666895
vn 0.235758 0.811875 -0.534114
vn -0.439214 0.813299 -0.381622
vn -0.377427 0.880033 -0.288255
vn -0.36135 0.888063 -0.284201
vn 0.340819 0.620595 -0.70619
vn 0.8998 0.300507 -0.316315
vn -0.186635 0.607712 -0.771915
vn -0.642949 0.733897 -0.219117
vn -0.786976 0.602145 -0.134496
vn 0.93718 0.348438 0.0168529
vn -0.808094 0.530166 0.256728
vn -0.752831 0.519849 0.403735
vn -0.618722 0.752627 0.225247
vn 0.510501 0.25991 0.819656
vn -0.154946 0.339941 0.927595
vn 0.383459 0.847508 -0.367
vn -0.207664 0.860715 -0.464806
vn 0.64657 0.413339 -0.64117
vn -0.39505 0.848092 0.353094
vn 0.998063 0.03247 -0.0530573
vn -0.947109 -0.318086 -0.0424962
vn 0.366271 -0.53915 -0.758395
vn 0.985714 -0.0321152 0.165339
vn 0.990104 -0.00384599 -0.140285
vn 0.201348 0.355034 -0.912913
vn 0.581438 0.785236 0.212918
vn 0.366271 -0.53915 -0.758395
vn 0.366271 -0.53915 -0.758395
vn -0.198147 -0.0338259 0.979588
vn -0.687743 0.431878 0.583516
vn -0.168693 0.853824 0.49247
vn 0.759956 0.488635 0.428606

g grp1
usemtl mtl1
f 3//3 1//1 2//2
f 2//2 1//1 5//5
f 2//2 5//5 39//39
f 39//39 5//5 40//40
f 39//39 40//40 69//69
f 69//69 40//40 42//42
f 69//69 42//42 72//72
f 72//72 42//42 47//47
f 72//72 47//47 73//73
f 73//73 47//47 48//48
f 73//73 48//48 49//49
f 49//49 48//48 12//12
f 49//49 12//12 19//19
f 19//19 12//12 10//10
f 19//19 10//10 90//90
f 5//5 1//1 4//4
f 4//4 1//1 15//15
f 4//4 15//15 16//16
f 16//16 15//15 23//23
f 16//16 23//23 24//24
f 24//24 23//23 30//30
f 24//24 30//30 31//31
f 31//31 30//30 35//35
f 31//31 35//35 36//36
f 36//36 35//35 66//66
f 36//36 66//66 62//62
f 62//62 66//66 82//82
f 62//62 82//82 60//60
f 60//60 82//82 54//54
f 60//60 54//54 53//53
f 53//53 54//54 55//55
f 53//53 55//55 56//56
f 56//56 55//55 72//72
f 56//56 72//72 73//73
f 7//7 4//4 6//6
f 6//6 4//4 16//16
f 6//6 16//16 17//17
f 17//17 16//16 24//24
f 17//17 24//24 25//25
f 25//25 24//24 31//31
f 25//25 31//31 32//32
f 32//32 31//31 36//36
f 32//32 36//36 98//98
f 98//98 36//36 62//62
f 4//4 7//7 5//5
f 5//5 7//7 40//40
f 9//9 6//6 8//8
f 8//8 6//6 17//17
f 8//8 17//17 18//18
f 18//18 17//17 25//25
f 6//6 9//9 7//7
f 7//7 9//9 40//40
f 11//11 8//8 10//10
f 10//10 8//8 18//18
f 8//8 11//11 9//9
f 9//9 11//11 43//43
f 9//9 43//43 41//41
f 41//41 43//43 47//47
f 41//41 47//47 42//42
f 10//10 12//12 11//11
f 11//11 12//12 43//43
f 3//3 13//13 1//1
f 1//1 13//13 15//15
f 3//3 14//14 13//13
f 13//13 14//14 20//20
f 13//13 20//20 22//22
f 22//22 20//20 21//21
f 22//22 21//21 27//27
f 27//27 21//21 28//28
f 27//27 28//28 33//33
f 33//33 28//28 63//63
f 33//33 63//63 64//64
f 64//64 63//63 84//84
f 64//64 84//84 65//65
f 65//65 84//84 81//81
f 65//65 81//81 80//80
f 80//80 81//81 78//78
f 80//80 78//78 77//77
f 77//77 78//78 76//76
f 77//77 76//76 70//70
f 70//70 76//76 50//50
f 70//70 50//50 46//46
f 46//46 50//50 52//52
f 13//13 22//22 15//15
f 15//15 22//22 23//23
f 90//90 26//26 19//19
f 19//19 26//26 49//49
f 90//90 25//25 26//26
f 26//26 25//25 32//32
f 26//26 32//32 61//61
f 23//23 22//22 29//29
f 29//29 22//22 27//27
f 29//29 27//27 33//33
f 23//23 29//29 30//30
f 30//30 29//29 34//34
f 30//30 34//34 35//35
f 35//35 34//34 66//66
f 29//29 33//33 34//34
f 34//34 33//33 65//65
f 34//34 65//65 66//66
f 66//66 65//65 80//80
f 66//66 80//80 82//82
f 82//82 80//80 77//77
f 82//82 77//77 54//54
f 54//54 77//77 55//55
f 38//38 2//2 37//37
f 37//37 2//2 39//39
f 37//37 39//39 68//68
f 68//68 39//39 69//69
f 68//68 69//69 71//71
f 71//71 69//69 72//72
f 71//71 72//72 77//77
f 77//77 72//72 55//55
f 3//3 2//2 38//38
f 42//42 40//40 41//41
f 41//41 40//40 9//9
f 14//14 44//44 45//45
f 45//45 44//44 46//46
f 45//45 46//46 20//20
f 20//20 46//46 92//92
f 44//44 14//14 93//93
f 93//93 14//14 89//89
f 47//47 43//43 48//48
f 48//48 43//43 12//12
f 45//45 20//20 14//14
f 52//52 50//50 51//51
f 51//51 50//50 75//75
f 51//51 75//75 59//59
f 59//59 75//75 79//79
f 59//59 79//79 83//83
f 83//83 79//79 101//101
f 97//97 91//91 96//96
f 53//53 56//56 57//57
f 57//57 56//56 49//49
f 57//57 49//49 26//26
f 51//51 58//58 52//52
f 52//52 58//58 21//21
f 51//51 59//59 58//58
f 58//58 59//59 63//63
f 58//58 63//63 28//28
f 21//21 58//58 28//28
f 62//62 60//60 61//61
f 61//61 60//60 53//53
f 61//61 53//53 57//57
f 57//57 26//26 61//61
f 33//33 64//64 65//65
f 94//94 37//37 67//67
f 67//67 37//37 68//68
f 67//67 68//68 70//70
f 70//70 68//68 71//71
f 70//70 71//71 77//77
f 95//95 67//67 44//44
f 44//44 67//67 46//46
f 46//46 67//67 70//70
f 75//75 50//50 74//74
f 74//74 50//50 76//76
f 74//74 76//76 86//86
f 86//86 76//76 78//78
f 49//49 56//56 73//73
f 59//59 83//83 63//63
f 63//63 83//83 84//84
f 75//75 74//74 85//85
f 85//85 74//74 86//86
f 85//85 86//86 88//88
f 87//87 79//79 85//85
f 85//85 79//79 75//75
f 85//85 88//88 100//100
f 100//100 88//88 84//84
f 100//100 84//84 83//83
f 78//78 81//81 88//88
f 88//88 81//81 84//84
f 99//99 78//78 88//88
